<?xml version="1.0" standalone="no"?>
<!DOCTYPE svg PUBLIC "-//W3C//DTD SVG 1.1//EN" "http://www.w3.org/Graphics/SVG/1.1/DTD/svg11.dtd" >
<svg xmlns="http://www.w3.org/2000/svg">
<metadata></metadata>
<defs>
<font id="interfacelight" horiz-adv-x="1058" >
<font-face units-per-em="2048" ascent="1638" descent="-410" />
<missing-glyph horiz-adv-x="409" />
<glyph unicode="&#xfb01;" horiz-adv-x="915" d="M35 885v90h145v112q0 78 24.5 135.5t65.5 95.5t96.5 56.5t114.5 18.5q94 0 153.5 -28t92.5 -54l-53 -78q-29 23 -76 46.5t-115 23.5q-84 0 -141 -49.5t-57 -174.5v-104h229v-90h-227v-885h-107v885h-145zM690 0v975h107v-975h-107z" />
<glyph unicode="&#xfb02;" horiz-adv-x="937" d="M35 885v90h145v94q0 80 26.5 140.5t74 100.5t112 59.5t139.5 19.5q100 0 162 -19.5t103 -38.5v-1331h-107v1264q-23 12 -63.5 21t-87.5 9q-115 0 -184.5 -52t-69.5 -183v-84h219v-90h-217v-885h-107v885h-145z" />
<glyph unicode="&#xfb03;" horiz-adv-x="1452" d="M35 885v90h145v115q0 156 69.5 229.5t188.5 73.5q72 0 117 -14.5t76 -30.5l-37 -88q-29 16 -65.5 28t-86.5 12q-72 0 -113.5 -46t-41.5 -173v-106h430v112q0 78 24.5 135.5t65.5 95.5t96 56.5t115 18.5q94 0 153.5 -28t92.5 -54l-54 -78q-29 23 -76 46.5t-114 23.5 q-84 0 -141.5 -49.5t-57.5 -174.5v-104h230v-90h-228v-885h-106v885h-430v-885h-107v885h-145zM1227 0v975h106v-975h-106z" />
<glyph unicode="&#xfb04;" horiz-adv-x="1476" d="M35 885v90h145v115q0 156 69.5 229.5t188.5 73.5q72 0 117 -14.5t76 -30.5l-37 -88q-29 16 -65.5 28t-86.5 12q-72 0 -113.5 -46t-41.5 -173v-106h432v94q0 80 26.5 140.5t73.5 100.5t111.5 59.5t140.5 19.5q100 0 161.5 -19.5t102.5 -38.5v-1331h-106v1264 q-23 12 -64 21t-88 9q-115 0 -184.5 -52t-69.5 -183v-84h219v-90h-217v-885h-106v885h-432v-885h-107v885h-145z" />
<glyph unicode="&#xd;" horiz-adv-x="409" />
<glyph horiz-adv-x="0" />
<glyph horiz-adv-x="0" />
<glyph unicode=" "  horiz-adv-x="409" />
<glyph unicode="&#x09;" horiz-adv-x="409" />
<glyph unicode="&#xa0;" horiz-adv-x="409" />
<glyph unicode="!" horiz-adv-x="409" d="M123 76q0 41 23.5 69.5t58.5 28.5t58.5 -29.5t23.5 -68.5t-23.5 -69t-58.5 -30t-58.5 29t-23.5 70zM154 424v942h106v-942h-106z" />
<glyph unicode="&#x22;" horiz-adv-x="585" d="M106 760v606h103v-606h-103zM377 760v606h102v-606h-102z" />
<glyph unicode="#" horiz-adv-x="1183" d="M4 506v96h346v305h-346v94h346v365h99v-365h286v365h99v-365h344v-94h-344v-305h344v-96h-344v-354h-99v354h-286v-354h-99v354h-346zM449 602h286v305h-286v-305z" />
<glyph unicode="$" d="M92 178l86 58q43 -72 122 -114t179 -44v608q-76 31 -138 65.5t-108.5 78.5t-72 102.5t-25.5 136.5q0 72 25.5 129t72 97t110 62.5t136.5 26.5v252h92v-252q129 -8 213 -61t131 -131l-86 -53q-43 63 -105 102t-153 47v-524q92 -41 161 -81t114 -87t67.5 -106.5 t22.5 -139.5q0 -156 -96.5 -255t-268.5 -115v-254h-92v254q-127 4 -229.5 55t-157.5 143zM244 1079q0 -59 16 -101t47 -75t74 -58.5t98 -49.5v493q-111 -4 -173 -62.5t-62 -146.5zM571 76q115 12 184.5 81.5t69.5 186.5q0 57 -15 101t-46 80t-79 67t-114 61v-577z" />
<glyph unicode="%" horiz-adv-x="1484" d="M66 72l1263 1300l68 -65l-1260 -1311zM66 1077q0 61 22.5 116.5t61 96.5t91 64.5t113.5 23.5t115.5 -23.5t93.5 -64.5t61.5 -96t22.5 -117q0 -61 -22.5 -116.5t-61.5 -95.5t-93 -63.5t-116 -23.5q-61 0 -114 23q-51 25 -90 64.5t-61.5 95t-22.5 116.5zM158 1079 q0 -41 15 -78.5t40 -68.5q27 -29 62.5 -47.5t78.5 -18.5t79 18.5t61.5 48.5t41 67.5t15.5 78.5q0 43 -15.5 82t-41 69t-61.5 46t-79 16t-78.5 -16t-61.5 -46t-41 -69t-15 -82zM838 289q0 61 22.5 116.5t61.5 96.5t92 64.5t114 23.5t114.5 -23.5t92.5 -64.5t61.5 -96.5 t22.5 -116.5t-22.5 -116.5t-61.5 -96.5t-92 -64.5t-115 -23.5q-61 -1 -114 22q-53 25 -92 66t-61.5 96t-22.5 117zM930 291q0 -41 15 -80t42 -70q27 -29 62.5 -47t76.5 -18q43 0 79 18.5t62.5 48t42 68.5t15.5 80q0 43 -15.5 82t-42 67.5t-62.5 45t-79 16.5 q-84 0 -140 -61.5t-56 -149.5z" />
<glyph unicode="&#x26;" horiz-adv-x="1200" d="M78 356q0 160 84 273.5t250 195.5l-54 80q-35 51 -59.5 102.5t-24.5 114.5q0 57 21.5 104.5t59.5 81t89.5 52t108.5 18.5q55 0 103.5 -17.5t85 -50t58 -79.5t21.5 -107q0 -117 -67.5 -193.5t-194.5 -137.5l262 -367q25 51 55.5 111.5t64.5 120t71 111.5t73 87l60 -74 q-80 -84 -139.5 -197.5t-122.5 -238.5l250 -346h-121l-178 252q-78 -133 -169.5 -205t-224.5 -72q-84 0 -151.5 32t-114.5 85t-71.5 122t-24.5 142zM186 354q0 -57 18.5 -108t52.5 -91t81 -63.5t106 -23.5t106.5 21.5t85.5 56t70.5 81.5t61.5 101l-301 422 q-141 -70 -211 -165.5t-70 -230.5zM381 1126q0 -43 20.5 -86t47.5 -84l59 -88q104 47 158.5 106.5t54.5 149.5q0 76 -49 121t-121 45q-76 0 -123 -46t-47 -118z" />
<glyph unicode="'" horiz-adv-x="315" d="M106 760v606h103v-606h-103z" />
<glyph unicode="(" horiz-adv-x="514" d="M94 700q0 279 106.5 484t282.5 313l41 -72q-150 -113 -234.5 -298t-84.5 -427t85 -426t234 -299l-41 -71q-176 111 -282.5 314.5t-106.5 481.5z" />
<glyph unicode=")" horiz-adv-x="514" d="M-8 -25q150 117 234.5 300.5t84.5 424.5q0 242 -85 427.5t-234 297.5l41 72q176 -109 282.5 -313.5t106.5 -483.5t-106.5 -482.5t-282.5 -313.5z" />
<glyph unicode="*" horiz-adv-x="829" d="M72 870l272 179l-270 184l45 72l252 -175v297h84v-297l256 173l47 -68l-275 -184l273 -183l-43 -71l-258 172v-312h-84v312l-254 -172z" />
<glyph unicode="+" d="M68 629v100h411v455h101v-455h409v-100h-409v-455h-101v455h-411z" />
<glyph unicode="," horiz-adv-x="307" d="M12 -123q33 12 72 40t53 58q-23 12 -39 37t-16 64q0 41 22.5 71.5t57.5 30.5q37 0 60.5 -29.5t23.5 -80.5q0 -41 -19.5 -79t-50.5 -69t-70.5 -54.5t-78.5 -35.5z" />
<glyph unicode="-" horiz-adv-x="618" d="M92 489v107h434v-107h-434z" />
<glyph unicode="." horiz-adv-x="348" d="M92 76q0 41 23.5 69.5t58.5 28.5t58.5 -29.5t23.5 -68.5t-23.5 -69t-58.5 -30t-58.5 29t-23.5 70z" />
<glyph unicode="/" horiz-adv-x="942" d="M0 16l858 1528l84 -49l-854 -1534z" />
<glyph unicode="0" d="M70 676q0 127 26.5 253t83 225t143.5 161.5t207 62.5q121 0 208 -62.5t142.5 -161.5t82 -225t26.5 -253t-26.5 -252t-82 -225.5t-142.5 -163t-208 -62.5q-120 1 -208 62q-86 63 -142.5 163.5t-83 225.5t-26.5 252zM186 678q0 -100 19.5 -208t60.5 -196t106.5 -145 t157.5 -57t157 57t106 145t60 196t19 208q0 104 -19 211.5t-60 193.5t-105.5 140.5t-157.5 54.5q-92 0 -157.5 -54.5t-106.5 -140.5t-60.5 -193.5t-19.5 -211.5z" />
<glyph unicode="1" d="M178 1092l379 260h113v-1352h-113v1229l-319 -219z" />
<glyph unicode="2" d="M115 1120q61 117 165.5 187.5t251.5 70.5q88 0 158 -26.5t118 -73.5t73.5 -110.5t25.5 -137.5q0 -76 -21.5 -145.5t-57 -134t-82 -127t-95.5 -123.5q-37 -47 -84 -103.5t-95 -113t-91 -105.5t-72 -80h631v-98h-788v70q106 121 206.5 238.5t194.5 236.5q49 59 92 117.5 t75 116t51.5 114.5t19.5 117q0 129 -75 199.5t-192 70.5q-109 0 -188.5 -57.5t-132.5 -151.5z" />
<glyph unicode="3" d="M88 184l90 60q51 -86 131 -129t176 -43q63 0 123 19.5t105 56t71.5 91t26.5 123.5q0 72 -27.5 126.5t-72.5 91t-102.5 57t-116.5 27.5v84q45 6 97 25.5t97 53t75 81.5t30 112q0 61 -25 109.5t-64.5 82t-93 51t-108.5 17.5q-111 0 -182.5 -51t-112.5 -125l-86 51 q53 94 150.5 158.5t248.5 64.5q82 0 152.5 -26.5t123 -72.5t82 -108.5t29.5 -136.5q0 -123 -70.5 -204.5t-179.5 -118.5q55 -14 104.5 -43t86.5 -72t58.5 -100.5t21.5 -130.5q0 -92 -36 -164t-95.5 -123t-138 -78t-167.5 -27q-129 0 -234 53.5t-167 157.5z" />
<glyph unicode="4" d="M82 418v114l668 820h77v-836h150v-98h-150v-418h-104v418h-641zM193 516h530v651z" />
<glyph unicode="5" d="M113 162l88 59q43 -66 117.5 -107.5t185.5 -41.5q147 0 239.5 92t92.5 252q0 100 -43 171.5t-120 117t-181.5 66t-225.5 20.5h-44t-42 -3v562h694v-99h-589v-364h20q133 0 250 -26.5t203 -83t135 -146.5t49 -217q0 -104 -32.5 -185.5t-91 -138.5t-139.5 -87t-175 -30 q-143 0 -240.5 52.5t-150.5 136.5z" />
<glyph unicode="6" d="M113 510q0 164 50 307.5t141 255t217 189t278 108.5l24 -90q-90 -18 -179 -63.5t-166 -113t-135 -154.5t-87 -191q59 41 134 68.5t167 27.5t167 -35t127 -94t79.5 -139t27.5 -170q0 -92 -28.5 -173t-80.5 -140.5t-128 -94.5t-170 -35q-109 0 -190.5 42t-137 115t-83 171 t-27.5 209zM227 500q0 -78 17.5 -156t56.5 -139.5t101.5 -100t150.5 -38.5q72 0 127 28.5t93 76.5t57.5 110.5t19.5 130.5q0 70 -20.5 133t-60.5 111.5t-99.5 76t-134.5 27.5q-88 0 -164 -33t-131 -80q-4 -31 -8.5 -68.5t-4.5 -78.5z" />
<glyph unicode="7" d="M82 1251v101h881v-80l-508 -1272h-117l500 1251h-756z" />
<glyph unicode="8" d="M102 356q0 132 72 222q74 92 184 129q-96 37 -164.5 115.5t-68.5 199.5q0 82 30.5 148.5t84 112.5t128 70.5t162.5 24.5t162 -24.5t127 -70.5t83 -110.5t30 -146.5q0 -125 -66.5 -201.5t-163.5 -117.5q111 -35 181.5 -127.5t70.5 -221.5q0 -92 -33.5 -163.5t-91 -120.5 t-134.5 -75t-165 -26t-165.5 26t-136 74t-92.5 119.5t-34 163.5zM211 358q0 -72 25 -127q27 -53 70.5 -90t102 -55t121.5 -18t121 18t102 55t69.5 91.5t25.5 125.5q0 66 -25.5 121.5t-69.5 95t-102.5 62t-122.5 22.5q-63 0 -120.5 -22.5t-101.5 -62t-69.5 -95t-25.5 -121.5z M231 1024q0 -66 23 -117q25 -49 65.5 -84t95 -52t113.5 -17t113.5 18.5t95.5 52t65.5 83.5t24.5 116t-24.5 115t-65.5 81.5t-94 49t-113 16.5q-59 0 -113.5 -16.5t-95 -49t-65.5 -81.5t-25 -115z" />
<glyph unicode="9" d="M113 944q0 90 28.5 169t81.5 138.5t129 93t170 33.5q106 0 187.5 -42t136.5 -114.5t83.5 -171t28.5 -208.5q0 -166 -51 -309.5t-143 -256t-219 -188.5t-279 -106l-24 90q100 25 191 70.5t167 113.5t131 155t86 191q-53 -41 -128 -68.5t-175 -27.5q-92 0 -167 33.5 t-127 93t-79.5 139.5t-27.5 172zM219 948q0 -76 20.5 -140.5t60.5 -110.5t100.5 -71.5t138.5 -25.5q83 0 163 35q82 35 134 78q4 33 6 67.5t2 71.5q0 78 -17.5 155.5t-56.5 139t-100.5 99.5t-149.5 38q-74 0 -129 -28.5t-94 -74.5t-58.5 -107.5t-19.5 -125.5z" />
<glyph unicode=":" horiz-adv-x="348" d="M92 76q0 41 23.5 69.5t58.5 28.5t58.5 -29.5t23.5 -68.5t-23.5 -69t-58.5 -30t-58.5 29t-23.5 70zM92 834q0 41 23.5 69.5t58.5 28.5t58.5 -30t23.5 -68q0 -41 -23.5 -71t-58.5 -30t-58.5 30t-23.5 71z" />
<glyph unicode=";" horiz-adv-x="307" d="M12 -123q33 12 72 40t53 58q-23 12 -39 37t-16 64q0 41 22.5 71.5t57.5 30.5q37 0 60.5 -29.5t23.5 -80.5q0 -41 -19.5 -79t-50.5 -69t-70.5 -54.5t-78.5 -35.5zM80 834q0 41 23.5 69.5t58.5 28.5t57.5 -30t22.5 -68q0 -41 -22.5 -71t-57.5 -30t-58.5 30t-23.5 71z" />
<glyph unicode="&#x3c;" d="M111 637v90l804 317l39 -98l-678 -262l693 -272l-39 -103z" />
<glyph unicode="=" d="M68 403v101h923v-101h-923zM68 774v98h923v-98h-923z" />
<glyph unicode="&#x3e;" d="M113 412l692 272l-680 262l41 98l805 -317v-90l-821 -328z" />
<glyph unicode="?" horiz-adv-x="720" d="M-2 1165q23 37 56.5 75t77.5 68.5t100.5 50t125.5 19.5q170 0 258.5 -86t88.5 -231q0 -55 -15.5 -102.5t-40 -91.5t-57.5 -85t-68 -82q-35 -39 -59.5 -70.5t-40.5 -61t-24.5 -58.5t-8.5 -64v-53h-104v62q0 92 44 157.5t99 128.5q35 39 64.5 76t52 76t35 81t12.5 93 q0 104 -63.5 161.5t-174.5 57.5q-49 0 -91 -15.5t-77.5 -40t-63.5 -55t-50 -63.5zM256 76q0 41 23.5 69.5t58.5 28.5q37 0 59.5 -29.5t22.5 -68.5t-22.5 -69t-59.5 -30q-35 0 -58.5 29t-23.5 70z" />
<glyph unicode="@" horiz-adv-x="1576" d="M123 528q0 199 46 360t137 272.5t227.5 172t316.5 60.5q141 0 241.5 -36t165 -96.5t94 -139.5t29.5 -165v-993q0 -86 41 -126t111 -40q37 0 65.5 8.5t51.5 18.5l30 -86q-29 -14 -73.5 -24.5t-96.5 -10.5q-47 0 -90 15.5t-75.5 47t-52 81t-19.5 116.5v197 q-49 -41 -120 -72t-163 -31q-78 0 -144.5 30t-115.5 85t-76.5 134t-27.5 177q0 92 27.5 169t75.5 130.5t115.5 83t147.5 29.5q94 0 161 -25.5t120 -62.5v131q0 174 -116 267t-306 93q-160 0 -275.5 -56t-190.5 -157.5t-111.5 -245t-36.5 -317.5q0 -80 14 -157.5t37.5 -148.5 t54.5 -132t64 -109l-87 -61q-33 41 -67.5 105.5t-63 144.5t-47 173t-18.5 191zM737 481q0 -66 16.5 -125t49.5 -104t82 -71.5t112 -26.5q86 0 156 32.5t117 75.5v447q-51 35 -115.5 61.5t-153.5 26.5q-127 0 -195.5 -87t-68.5 -229z" />
<glyph unicode="A" horiz-adv-x="1126" d="M0 0l518 1366h84l524 -1366h-116l-168 438h-563l-164 -438h-115zM315 541h490l-250 659z" />
<glyph unicode="B" horiz-adv-x="1064" d="M166 0v1366h373q193 0 294 -86t101 -260q0 -123 -66.5 -196.5t-195.5 -98.5q147 -10 239.5 -95t92.5 -251q0 -88 -29 -158.5t-80 -120t-123 -75t-158 -25.5h-448zM279 100h327q135 0 208 76t73 207q0 154 -95.5 219.5t-261.5 65.5h-251v-568zM279 770h245q145 0 220 69.5 t75 186.5q0 125 -71.5 182.5t-206.5 57.5h-262v-496z" />
<glyph unicode="C" horiz-adv-x="1136" d="M100 678q0 174 42 307t115 223t169 137.5t207 47.5q168 0 276.5 -77t167.5 -200l-94 -51q-23 43 -53.5 84t-73.5 72.5t-96 50t-119 18.5q-90 0 -168 -40t-135 -117.5t-89 -192.5t-32 -264q0 -133 32 -243.5t89 -189.5t139 -123t180 -44q66 0 118 17.5t93 47t74 69.5 t57 85l88 -53q-31 -57 -70.5 -106.5t-92 -85.5t-119 -56.5t-150.5 -20.5q-129 0 -232.5 49.5t-175 141.5t-109.5 222t-38 292z" />
<glyph unicode="D" horiz-adv-x="1232" d="M166 0v1366h336q145 0 266 -42t207 -125t133 -207t47 -290q0 -178 -47 -310t-133 -219t-206 -130t-267 -43h-336zM276 100h205q123 0 225.5 34t176 106.5t114.5 184.5t41 269q0 145 -38.5 252t-110.5 177.5t-173.5 105.5t-226.5 35h-213v-1164z" />
<glyph unicode="E" horiz-adv-x="999" d="M166 0v1366h766v-100h-653v-490h473v-102h-476v-574h697v-100h-807z" />
<glyph unicode="F" horiz-adv-x="921" d="M166 0v1366h754v-100h-641v-512h471v-101h-474v-653h-110z" />
<glyph unicode="G" horiz-adv-x="1202" d="M100 678q0 172 44 305t119 224t175.5 138.5t214.5 47.5q92 0 162 -20.5t123 -55.5t90 -82t66 -100l-93 -56q-23 43 -54.5 81t-73.5 67.5t-97 47t-123 17.5q-86 0 -164.5 -39t-139 -115.5t-96.5 -192.5t-36 -269q0 -137 34 -249t95.5 -191.5t147.5 -122.5t188 -43 q92 0 176 18t131 35v424h-258v102h369v-600q-70 -29 -180.5 -52.5t-239.5 -23.5t-235.5 46.5t-183.5 135.5t-119 220t-42 303z" />
<glyph unicode="H" horiz-adv-x="1300" d="M166 0v1366h113v-608h743v608h113v-1366h-113v655h-743v-655h-113z" />
<glyph unicode="I" horiz-adv-x="444" d="M166 0v1366h113v-1366h-113z" />
<glyph unicode="J" horiz-adv-x="450" d="M-80 -164q53 12 100.5 30.5t82 49.5t54 75t19.5 103v1272h113v-1274q0 -84 -28 -145.5t-75 -103.5t-110.5 -66.5t-134.5 -36.5z" />
<glyph unicode="K" horiz-adv-x="1107" d="M166 0v1366h113v-664l649 664h135l-524 -539l565 -827h-133l-510 745l-182 -180v-565h-113z" />
<glyph unicode="L" horiz-adv-x="954" d="M166 0v1366h113v-1266h659v-100h-772z" />
<glyph unicode="M" horiz-adv-x="1480" d="M166 0v1366h143l445 -1147l422 1147h139v-1366h-109v1163l-438 -1186h-25l-469 1184v-1161h-108z" />
<glyph unicode="N" horiz-adv-x="1325" d="M166 0v1366h119l764 -1149v1149h110v-1366h-98l-785 1178v-1178h-110z" />
<glyph unicode="O" horiz-adv-x="1316" d="M100 684q0 137 36 265t106.5 226.5t175 158t244.5 59.5q141 0 245.5 -60.5t173 -160t102.5 -227.5t34 -261t-34 -261t-102.5 -227.5t-173 -161t-245.5 -61.5q-144 1 -250 60q-104 61 -174 160.5t-104 227.5t-34 263zM217 684q0 -111 27 -220.5t82 -197.5q55 -86 139 -139 t197 -53t194.5 54t136 140t81 195.5t26.5 220.5t-25.5 219.5t-80 194.5t-137.5 140t-195 54q-117 0 -201 -53t-138.5 -140t-80 -195.5t-25.5 -219.5z" />
<glyph unicode="P" horiz-adv-x="1060" d="M166 0v1366h428q205 0 316.5 -101.5t111.5 -297.5q0 -98 -32 -172t-88 -123t-135 -74t-171 -25h-317v-573h-113zM279 676h317q143 0 226 76.5t83 212.5q0 141 -76.5 221t-234.5 80h-315v-590z" />
<glyph unicode="Q" horiz-adv-x="1316" d="M100 686q0 137 36 265t106.5 226.5t175 157t244.5 58.5q141 0 245.5 -60.5t173 -160t102.5 -226.5t34 -260q0 -125 -30 -246t-90.5 -218t-153.5 -162.5t-220 -82.5q29 -78 110.5 -111.5t198.5 -39.5l-10 -98q-78 6 -142.5 19t-118.5 41t-95 74t-68 115q-127 14 -220 79 t-154.5 162t-92.5 218t-31 250zM217 686q0 -111 27 -220.5t82 -197.5q55 -86 139 -140t197 -54t194.5 54t136 141t81 196.5t26.5 220.5q0 109 -25.5 217.5t-80 194.5t-137.5 140t-195 54q-117 0 -201 -53t-138.5 -139t-80 -194.5t-25.5 -219.5z" />
<glyph unicode="R" horiz-adv-x="1099" d="M166 0v1366h430q207 0 314.5 -97.5t107.5 -273.5t-98.5 -266t-262.5 -106l381 -623h-127l-381 618h-251v-618h-113zM279 719h311q154 0 233.5 67.5t79.5 208.5q0 131 -77.5 201t-231.5 70h-315v-547z" />
<glyph unicode="S" horiz-adv-x="1030" d="M63 201l95 65q59 -92 153.5 -142t206.5 -50q137 0 227.5 65.5t90.5 204.5q0 70 -28 122t-77 92t-115.5 70.5t-142.5 57.5q-63 23 -128.5 52.5t-119 73.5t-87.5 103.5t-34 141.5t34 145.5t90.5 105.5t133 63.5t162.5 21.5q156 0 258.5 -58.5t167.5 -150.5l-88 -68 q-55 76 -139 126t-203 50q-61 0 -115.5 -14t-94.5 -43t-63.5 -72t-23.5 -100q0 -59 29 -101t74 -75t102 -57.5t113 -45.5q80 -31 153.5 -66.5t131 -84.5t92 -118t34.5 -165q0 -190 -117.5 -283.5t-320.5 -93.5q-147 0 -263 58.5t-188 169.5z" />
<glyph unicode="T" horiz-adv-x="974" d="M8 1266v100h959v-100h-424v-1266h-113v1266h-422z" />
<glyph unicode="U" horiz-adv-x="1292" d="M156 455v911h112v-881q0 -188 97.5 -298.5t279.5 -110.5q184 0 281.5 107.5t97.5 301.5v881h113v-911q0 -117 -39 -207t-105.5 -150.5t-157 -92.5t-192.5 -32q-104 0 -193.5 32t-155 92.5t-102 150.5t-36.5 207z" />
<glyph unicode="V" horiz-adv-x="1126" d="M12 1366h119l434 -1155l430 1155h119l-514 -1366h-70z" />
<glyph unicode="W" horiz-adv-x="1529" d="M12 1366h111l287 -1114l323 1114h64l327 -1114l281 1114h113l-344 -1366h-76l-334 1118l-332 -1118h-74z" />
<glyph unicode="X" horiz-adv-x="1005" d="M12 0l424 696l-387 670h131l324 -575l321 575h127l-385 -657l426 -709h-135l-356 614l-365 -614h-125z" />
<glyph unicode="Y" horiz-adv-x="1054" d="M0 1366h127l395 -604l410 604h123l-480 -707v-659h-112v657z" />
<glyph unicode="Z" horiz-adv-x="1093" d="M80 0v104l803 1162h-768v100h878v-113l-794 -1153h825v-100h-944z" />
<glyph unicode="[" horiz-adv-x="409" d="M147 -293v1800h261v-90h-156v-1618h156v-92h-261z" />
<glyph unicode="\" horiz-adv-x="933" d="M0 1495l88 53l846 -1517l-90 -60z" />
<glyph unicode="]" horiz-adv-x="409" d="M4 -201h156v1618h-156v90h258v-1800h-258v92z" />
<glyph unicode="^" horiz-adv-x="1028" d="M131 649l334 721h94l338 -706l-94 -41l-293 616l-285 -629z" />
<glyph unicode="_" horiz-adv-x="1028" d="M0 -340h1028v-88h-1028v88z" />
<glyph unicode="`" horiz-adv-x="598" d="M92 1380l76 82l338 -286l-49 -56z" />
<glyph unicode="a" horiz-adv-x="929" d="M80 276q0 106 54 177t140 112t195 57.5t219 18.5v43q0 113 -57.5 170t-163.5 57q-78 0 -138.5 -33.5t-99.5 -78.5l-73 57q51 63 124.5 104t190.5 41q324 0 324 -327v-674h-97l-8 84q-49 -49 -117.5 -78t-166.5 -29q-70 0 -129.5 19.5t-103.5 57.5t-68.5 94.5t-24.5 127.5 zM188 274q0 -53 19.5 -92t52.5 -64.5t75 -37.5t85 -12q82 0 151.5 34.5t116.5 81.5v365q-84 -2 -173 -12.5t-161.5 -40t-119 -83t-46.5 -139.5z" />
<glyph unicode="b" horiz-adv-x="1040" d="M141 41v1325h107v-436q53 31 116.5 51t143.5 20q90 0 170 -31.5t139.5 -95t94 -158.5t34.5 -220q0 -119 -37 -215.5t-101.5 -164t-150.5 -103.5t-186 -36q-104 0 -188 19.5t-142 44.5zM248 106q47 -18 103.5 -29t103.5 -11q86 0 157.5 30.5t121.5 88t78 136t28 175.5 q0 98 -27 175t-75 130t-112.5 81.5t-138.5 28.5q-66 0 -126 -21.5t-113 -60.5v-723z" />
<glyph unicode="c" horiz-adv-x="931" d="M96 487q0 129 35 225.5t93.5 161t135 96t162.5 31.5q76 0 132.5 -19t96.5 -50t67.5 -68t43.5 -73l-84 -50q-37 74 -97 122t-159 48q-72 0 -130 -31.5t-100 -88t-65.5 -133t-23.5 -169.5q0 -96 23.5 -172.5t67.5 -132t105.5 -85t135.5 -29.5q172 0 266 161l80 -51 q-51 -92 -139.5 -147.5t-213.5 -55.5q-92 0 -170.5 34t-137 99.5t-91.5 160t-33 216.5z" />
<glyph unicode="d" horiz-adv-x="1040" d="M94 494q0 111 33 204t92.5 160.5t142 105t185.5 37.5q92 0 150.5 -19t97.5 -44v428h106v-1366h-94l-12 86q-47 -51 -115 -80t-160 -29q-98 0 -177 37t-134 104.5t-85 163t-30 212.5zM201 489q0 -190 87 -305.5t244 -115.5q84 0 151 34.5t112 92.5v636q-35 33 -99.5 56.5 t-136.5 23.5q-82 0 -147.5 -31.5t-112.5 -88t-72.5 -133t-25.5 -169.5z" />
<glyph unicode="e" horiz-adv-x="995" d="M96 489q0 119 31 214.5t86 161t132 101t169 35.5q98 0 173 -35.5t126 -100t78 -157t31 -202.5h-723q0 -207 88 -322.5t256 -115.5q104 0 171.5 50t110.5 126l78 -49q-25 -43 -56.5 -82t-75.5 -70t-101.5 -48.5t-130.5 -17.5q-209 0 -326 134.5t-117 377.5zM207 596h594 q-4 82 -31 142.5t-66.5 98t-89 56t-100.5 18.5q-117 0 -201 -74.5t-106 -240.5z" />
<glyph unicode="f" horiz-adv-x="538" d="M35 885v90h145v115q0 156 69.5 229.5t188.5 73.5q72 0 117 -14.5t76 -30.5l-37 -88q-29 16 -65.5 28t-86.5 12q-72 0 -113.5 -46t-41.5 -173v-106h227v-90h-227v-885h-107v885h-145z" />
<glyph unicode="g" horiz-adv-x="1028" d="M82 -115q0 92 45 149.5t113 90.5q-35 16 -61.5 45t-26.5 78q0 53 38.5 88t94.5 51q-29 16 -58.5 41t-54.5 58.5t-40 78.5t-15 105q0 78 31.5 139t87 104t127 65.5t151.5 22.5q78 0 135.5 -15t104.5 -40l120 131l72 -63l-115 -127q35 -35 61 -89.5t26 -125.5 q0 -80 -33 -142.5t-88.5 -106.5t-129 -67.5t-155.5 -23.5q-41 0 -80 5t-63 11q-41 -10 -75 -30.5t-34 -55.5q0 -47 61.5 -67.5t208.5 -28.5q84 -4 160 -14.5t123 -24.5q98 -29 143 -87t45 -151q0 -147 -117.5 -223t-322.5 -76q-233 0 -356 72t-123 223zM180 -104 q0 -59 28 -101.5t78 -68t119.5 -38t153.5 -12.5q158 0 251 51.5t93 153.5q0 100 -76 139q-35 23 -107.5 34.5t-191.5 19.5q-53 4 -110 10t-88 12q-61 -23 -105.5 -73t-44.5 -127zM221 670q0 -113 80 -180.5t207 -67.5q55 0 109.5 13.5t98.5 44t70.5 79.5t26.5 119 q0 61 -27.5 106t-70.5 73t-95.5 41t-103.5 13q-57 0 -110.5 -16t-94.5 -47t-65.5 -76t-24.5 -102z" />
<glyph unicode="h" horiz-adv-x="1062" d="M141 0v1366h107v-475q59 47 136 78.5t181 31.5q190 0 276.5 -96t86.5 -282v-623h-109v621q0 154 -68.5 221t-201.5 67q-90 0 -165 -35.5t-136 -82.5v-791h-107z" />
<glyph unicode="i" horiz-adv-x="391" d="M121 1276q0 39 21.5 64.5t52.5 25.5q33 0 55 -25.5t22 -64.5q0 -41 -22 -66.5t-55 -25.5q-31 0 -52.5 26.5t-21.5 65.5zM141 0v975h109v-975h-109z" />
<glyph unicode="j" horiz-adv-x="387" d="M-23 -322q88 55 124 129t36 187v981h109v-981q0 -152 -54.5 -243t-160.5 -152zM115 1276q0 39 21.5 64.5t53.5 25.5q31 0 53.5 -25.5t22.5 -64.5q0 -41 -22.5 -66.5t-53.5 -25.5q-33 0 -54 26.5t-21 65.5z" />
<glyph unicode="k" horiz-adv-x="931" d="M141 0v1366h107v-811l446 420h137l-329 -316l432 -659h-127l-385 586l-174 -162v-424h-107z" />
<glyph unicode="l" horiz-adv-x="389" d="M141 0v1366h107v-1366h-107z" />
<glyph unicode="m" horiz-adv-x="1626" d="M141 0v975h99l6 -90q49 41 127 78.5t180 37.5q92 0 156.5 -29.5t105.5 -86.5q55 47 136 81.5t192 34.5q180 0 265 -99t85 -284v-618h-109v627q0 139 -66.5 209.5t-187.5 70.5q-88 0 -157.5 -32.5t-118.5 -73.5q12 -31 20.5 -75t8.5 -97v-629h-109v637q0 57 -13 106.5 t-42 86t-75 57t-109 20.5q-84 0 -159 -41t-128 -86v-780h-107z" />
<glyph unicode="n" horiz-adv-x="1067" d="M141 0v975h99l8 -90q61 47 138 81.5t187 34.5q358 0 359 -389v-612h-107v623q0 135 -65.5 210.5t-200.5 75.5q-98 0 -175 -39t-136 -88v-782h-107z" />
<glyph unicode="o" horiz-adv-x="1062" d="M96 496q0 98 28 189t82 162t135 112.5t189 41.5q106 0 188.5 -43t137.5 -113.5t83 -162.5t28 -190q0 -100 -28 -193.5t-83 -164.5t-137 -114t-189 -43q-106 0 -188 43q-80 45 -135 117t-83 166t-28 193zM203 496q0 -80 20.5 -157t61.5 -138q41 -59 102.5 -96t142.5 -37 q84 0 145.5 37.5t102.5 98t61.5 136.5t20.5 154t-20.5 152.5t-61.5 134t-102.5 95t-145.5 35.5t-145 -35.5t-102 -94t-60.5 -133.5t-19.5 -152z" />
<glyph unicode="p" horiz-adv-x="1038" d="M141 -387v1362h97l10 -82q49 43 117.5 75.5t166.5 32.5q102 0 180.5 -36.5t129.5 -103t76.5 -159t25.5 -204.5q0 -117 -32.5 -213.5t-94 -165t-147.5 -105.5t-191 -37q-78 0 -134 17.5t-97 42.5v-424h-107zM248 139q39 -29 94 -49t127 -20q82 0 150.5 29.5t116.5 84 t75 133t27 177.5q0 86 -18.5 161.5t-58.5 132t-101.5 90t-149.5 33.5q-80 0 -145.5 -35.5t-116.5 -84.5v-652z" />
<glyph unicode="q" horiz-adv-x="1042" d="M94 487q0 117 37 211.5t102.5 162t155.5 104t199 36.5q96 0 178 -12t135 -24v-1352h-106v438q-43 -29 -110 -51.5t-159 -22.5t-171 35t-137 100.5t-91 160t-33 214.5zM203 483q0 -102 28.5 -179t76.5 -130t111.5 -79.5t133.5 -26.5q76 0 140.5 28.5t101.5 61.5v727 q-39 10 -90.5 18t-110.5 8q-78 0 -149.5 -28.5t-125 -83t-85 -134t-31.5 -182.5z" />
<glyph unicode="r" horiz-adv-x="614" d="M141 0v975h97l8 -98q43 51 105.5 86.5t135.5 35.5q41 0 73 -4t52 -10l-18 -100q-45 16 -115 16q-66 0 -128 -41t-103 -90v-770h-107z" />
<glyph unicode="s" horiz-adv-x="794" d="M72 150l84 53q39 -61 99 -98t153 -37q104 0 164.5 45t60.5 135q0 94 -61.5 146t-198.5 100q-141 47 -200.5 106t-59.5 162q0 106 79.5 172.5t221.5 66.5q115 0 188.5 -41.5t116.5 -109.5l-80 -57q-35 51 -91 85.5t-134 34.5q-98 0 -146.5 -42t-48.5 -105 q0 -37 11.5 -63.5t39 -49t75.5 -44t120 -46.5q137 -47 203.5 -116.5t66.5 -192.5q0 -135 -93 -206t-234 -71q-135 0 -214 50.5t-122 122.5z" />
<glyph unicode="t" horiz-adv-x="610" d="M35 885v90h168v262h106v-262h256v-90h-258v-678q0 -78 32 -108.5t87 -30.5q39 0 67.5 11t57.5 34l45 -78q-41 -29 -81 -43.5t-112 -14.5q-92 0 -146 54.5t-54 158.5v695h-168z" />
<glyph unicode="u" horiz-adv-x="1060" d="M133 346v629h109v-629q0 -147 72.5 -211.5t195.5 -64.5q92 0 170 37.5t131 97.5v770h109v-975h-97l-8 96q-55 -47 -129 -83t-190 -36q-172 0 -267.5 89.5t-95.5 279.5z" />
<glyph unicode="v" horiz-adv-x="868" d="M0 975h117l321 -846l320 846h110l-374 -975h-115z" />
<glyph unicode="w" horiz-adv-x="1331" d="M0 975h113l254 -803l258 803h73l258 -803l261 803h114l-330 -975h-86l-253 786l-256 -786h-84z" />
<glyph unicode="x" horiz-adv-x="780" d="M0 0l334 498l-318 477h117l260 -391l254 391h115l-311 -477l327 -498h-114l-271 414l-274 -414h-119z" />
<glyph unicode="y" horiz-adv-x="892" d="M0 975h121l330 -834l327 834h115l-498 -1239q-35 -84 -88 -117t-129 -33q-47 0 -93 9.5t-77 23.5l33 92q27 -10 63.5 -21.5t69.5 -11.5q51 0 80 23t53 84l86 215z" />
<glyph unicode="z" horiz-adv-x="923" d="M84 0v106l621 779h-599v90h711v-109l-620 -776h634v-90h-747z" />
<glyph unicode="{" horiz-adv-x="479" d="M47 645v76q88 14 130 60t42 163v307q0 133 62.5 187.5t167.5 58.5l8 -78q-92 -4 -118 -52t-26 -134v-289q0 -113 -34.5 -174t-135.5 -88q100 -27 135 -86t35 -172v-289q0 -84 26 -133t118 -55l-8 -76q-104 2 -167 57.5t-63 188.5v307q0 115 -42 162t-130 59z" />
<glyph unicode="|" horiz-adv-x="417" d="M158 -152v1663h102v-1663h-102z" />
<glyph unicode="}" horiz-adv-x="481" d="M25 -53q88 6 114.5 55t26.5 133v289q0 55 8 98t27.5 74t52.5 52.5t84 33.5q-102 27 -137 88t-35 174v289q0 84 -26.5 133t-114.5 53l8 78q104 -4 166.5 -58.5t62.5 -187.5v-307q0 -59 10.5 -98t32 -64.5t53 -40t76.5 -20.5v-76q-90 -12 -131 -59t-41 -162v-307 q0 -133 -62.5 -188.5t-166.5 -57.5z" />
<glyph unicode="~" horiz-adv-x="890" d="M10 1075q16 123 87 187.5t175 64.5q86 0 142.5 -36t105.5 -74q31 -23 59.5 -39.5t63.5 -16.5q72 0 102.5 48t40.5 120h93q-4 -68 -26 -116t-54.5 -80.5t-73.5 -48t-84 -15.5q-66 0 -115 29.5t-94 64.5q-39 29 -78 50.5t-86 21.5q-66 0 -111.5 -41t-56.5 -119h-90z" />
<glyph unicode="&#xa1;" horiz-adv-x="360" d="M98 903q0 39 22.5 68.5t59.5 29.5q35 0 58.5 -28.5t23.5 -69.5t-23.5 -69.5t-58.5 -28.5q-37 0 -59.5 28.5t-22.5 69.5zM123 -397v936h108v-936h-108z" />
<glyph unicode="&#xa2;" d="M195 690q0 84 25.5 151.5t68.5 116t100 77t123 38.5v293h84v-293q74 -2 132 -29.5t95 -62.5l-55 -72q-76 70 -172 72v-600q98 6 168 70l49 -76q-41 -37 -96 -60.5t-121 -27.5v-295h-84v297q-143 25 -230 126t-87 275zM303 690q0 -137 57.5 -209.5t151.5 -95.5v594 q-88 -10 -148.5 -83t-60.5 -206z" />
<glyph unicode="&#xa3;" d="M72 528v97h141v346q0 203 94 305t266 102q68 0 120 -16t92 -44t71 -68t53 -85l-104 -49q-29 63 -84 111.5t-150 48.5q-125 0 -188.5 -77t-63.5 -236v-338h453v-97h-453v-430h605v-98h-709v528h-143z" />
<glyph unicode="&#xa4;" horiz-adv-x="1368" d="M35 137l319 336q-98 137 -98 285q0 139 90 276l-311 322l80 71l301 -319q137 104 278 104q72 0 136.5 -22.5t130.5 -73.5l292 311l80 -71l-299 -309q51 -72 75 -141.5t24 -147.5t-26 -152t-81 -145l307 -326l-69 -65l-308 323q-68 -47 -131 -68.5t-131 -21.5 q-139 0 -270 98l-320 -331zM354 756q0 -74 27 -138.5t72 -113.5q47 -47 108.5 -75t132.5 -28q70 0 132.5 28t108.5 76t72.5 112.5t26.5 138.5t-26.5 138t-72.5 113.5t-108.5 77t-132.5 27.5q-72 0 -133 -27.5t-107 -77t-73 -114t-27 -137.5z" />
<glyph unicode="&#xa5;" d="M43 1350h125l346 -605l365 605h118l-313 -510h195v-97h-252l-60 -96v-106h310v-97h-310v-444h-112v444h-314v97h314v104l-58 98h-256v97h201z" />
<glyph unicode="&#xa6;" horiz-adv-x="417" d="M158 -152v564h102v-564h-102zM158 946v565h102v-565h-102z" />
<glyph unicode="&#xa7;" horiz-adv-x="862" d="M129 -178l59 72q41 -47 95.5 -76t119.5 -29q96 0 150.5 42t54.5 120q0 39 -11 71.5t-41 67.5t-80 77t-130 97q-111 80 -163 151.5t-52 170.5q0 117 71.5 183.5t182.5 96.5q-37 33 -70.5 66t-60.5 68.5t-42 77.5t-15 93q0 100 74.5 161t197.5 61q92 0 153.5 -33t96.5 -74 l-60 -63q-33 37 -80 61.5t-114 24.5q-80 0 -125 -36t-45 -104q0 -37 15.5 -70.5t44 -68.5t69.5 -72.5t94 -83.5q70 -61 116 -107t71.5 -86t36 -81t10.5 -90q0 -106 -65.5 -170t-158.5 -96q49 -39 84 -72t56.5 -65.5t32 -68.5t10.5 -79q0 -57 -23.5 -104.5t-65.5 -80 t-96.5 -51t-115.5 -18.5q-96 0 -162 32t-119 85zM229 588q0 -45 16.5 -82t47.5 -70.5t72 -68.5q43 -33 94 -72q86 27 140 77t54 134q0 41 -10 75.5t-34.5 70.5t-63.5 74t-94 83q-94 -23 -158 -74t-64 -147z" />
<glyph unicode="&#xa8;" horiz-adv-x="483" d="M0 1321q0 37 23.5 63.5t56.5 26.5t55.5 -26.5t22.5 -63.5q0 -39 -22.5 -64.5t-55.5 -25.5t-56.5 25.5t-23.5 64.5zM326 1321q0 37 23.5 63.5t56.5 26.5t55 -26.5t22 -63.5q0 -39 -22 -64.5t-55 -25.5t-56.5 25.5t-23.5 64.5z" />
<glyph unicode="&#xa9;" horiz-adv-x="1589" d="M84 608q0 154 48 292t140.5 242.5t224.5 166t298 61.5t298 -61.5t224 -166t140 -242.5t48 -292t-48 -293t-140 -244.5t-224 -167t-298 -61.5q-166 1 -299 62q-131 61 -223.5 166.5t-140.5 245t-48 292.5zM178 608q0 -131 42 -254t120 -217q80 -94 194.5 -151.5 t260.5 -57.5q145 0 259.5 57.5t193.5 151.5t121 217t42 254t-42 254t-121 217.5t-193.5 150.5t-259.5 56t-260 -56t-194 -150.5t-121 -217.5t-42 -254zM446 604q0 119 29 207t79 145.5t115.5 85t139.5 27.5q104 0 171 -48t101 -110l-73 -43q-33 53 -77 86t-126 33 q-117 0 -190.5 -98t-73.5 -285q0 -180 76.5 -276.5t191.5 -96.5q72 0 122 34t85 89l69 -51q-45 -70 -109.5 -111.5t-168.5 -41.5q-74 0 -139.5 26.5t-114.5 81.5t-78 141t-29 205z" />
<glyph unicode="&#xaa;" horiz-adv-x="653" d="M59 967q0 74 36 126t96.5 84.5t137.5 48t160 15.5v37q0 76 -44 112.5t-109 36.5q-104 0 -170 -81l-64 45q35 49 94.5 82.5t145.5 33.5q117 0 179.5 -62.5t62.5 -191.5v-489h-86l-4 59q-29 -27 -79 -52.5t-116 -25.5q-47 0 -91 14.5t-77 42t-52.5 68.5t-19.5 97zM154 967 q0 -72 44 -106t107 -34q59 0 105.5 25t78.5 59v250q-63 0 -123.5 -10t-107.5 -33.5t-75.5 -60.5t-28.5 -90z" />
<glyph unicode="&#xab;" horiz-adv-x="950" d="M61 514l365 408l72 -62l-299 -340l331 -336l-69 -63zM428 514l369 399l69 -61l-295 -332l320 -325l-66 -64z" />
<glyph unicode="&#xac;" d="M63 750v100h922v-619h-102v519h-820z" />
<glyph unicode="&#xad;" horiz-adv-x="618" d="M92 489v107h434v-107h-434z" />
<glyph unicode="&#xae;" horiz-adv-x="1589" d="M84 608q0 154 48 292t140.5 242.5t224.5 166t298 61.5t298 -61.5t224 -166t140 -242.5t48 -292t-48 -293t-140 -244.5t-224 -167t-298 -61.5q-166 1 -299 62q-131 61 -223.5 166.5t-140.5 245t-48 292.5zM178 608q0 -131 42 -254t120 -217q80 -94 194.5 -151.5 t260.5 -57.5q145 0 259.5 57.5t193.5 151.5t121 217t42 254t-42 254t-121 217.5t-193.5 150.5t-259.5 56t-260 -56t-194 -150.5t-121 -217.5t-42 -254zM541 172v887h276q133 0 207 -63.5t74 -176.5q0 -59 -16.5 -102t-46 -72t-68.5 -46t-82 -26l229 -401h-104l-224 395h-157 v-395h-88zM629 649h182q92 0 143.5 39t51.5 131q0 80 -49.5 121t-137.5 41h-190v-332z" />
<glyph unicode="&#xaf;" horiz-adv-x="708" d="M61 1253v93h586v-93h-586z" />
<glyph unicode="&#xb0;" horiz-adv-x="729" d="M84 1079q0 57 22.5 108.5t60.5 91.5t89 63.5t109 23.5q57 0 108 -22.5t90 -62.5t60.5 -92t21.5 -110q0 -59 -21.5 -110t-60.5 -91t-90 -62.5t-108 -22.5q-58 -1 -109 22t-89 63t-60.5 91t-22.5 110zM172 1079q0 -41 14 -78q16 -35 43 -61.5t62 -41.5t74 -15q43 0 77.5 16 t61 43t41 62.5t14.5 74.5t-14.5 75t-40 63.5t-61 44t-78.5 16.5q-82 0 -137.5 -57.5t-55.5 -141.5z" />
<glyph unicode="&#xb1;" d="M66 0v98h925v-98h-925zM70 692v101h411v454h101v-454h409v-101h-409v-452h-101v452h-411z" />
<glyph unicode="&#xb2;" horiz-adv-x="589" d="M63 1239q37 59 89.5 99t146.5 40q104 0 156.5 -49t52.5 -133q0 -78 -39 -140.5t-94 -125.5q-33 -37 -80 -83t-82 -79h313v-78h-446v55q63 61 114.5 111.5t104.5 110.5q53 59 83 112.5t30 106.5q0 51 -31 81.5t-88 30.5q-53 0 -89 -24.5t-67 -75.5z" />
<glyph unicode="&#xb3;" horiz-adv-x="589" d="M55 801l74 43q29 -41 65.5 -63.5t92.5 -22.5q66 0 104.5 31.5t38.5 84.5q0 66 -48 98t-120 34v67q66 6 111 36t45 83q0 47 -36 77.5t-97 30.5q-88 0 -144 -83l-67 45q37 55 93 85.5t130 30.5q92 0 154.5 -49t62.5 -131q0 -57 -35 -96t-88 -60q59 -16 96 -55t37 -110 q0 -94 -68.5 -145.5t-166.5 -51.5q-158 0 -234 121z" />
<glyph unicode="&#xb4;" horiz-adv-x="598" d="M94 1180l338 286l74 -86l-363 -260z" />
<glyph unicode="&#xb5;" horiz-adv-x="1138" d="M164 -387v1362h108v-615q0 -68 21.5 -122t58.5 -91.5t87 -58t110 -20.5q57 0 105 14t85 38.5t61.5 55.5t37.5 64q10 29 12 64.5t2 70.5v600h109v-762q0 -70 13 -107.5t66 -37.5q16 0 30.5 4t29.5 8l16 -84q-18 -8 -43.5 -13.5t-48.5 -5.5q-72 0 -113 37t-51 105 q-53 -63 -128 -102.5t-185 -39.5q-94 0 -167 37t-112 107v-508h-104z" />
<glyph unicode="&#xb6;" horiz-adv-x="978" d="M66 979q0 80 29.5 150.5t79.5 123t118.5 83t146.5 30.5h125v-1663h-100v889q-86 0 -160 30.5t-127 83t-82.5 123t-29.5 150.5zM743 -297v1663h103v-1663h-103z" />
<glyph unicode="&#xb7;" horiz-adv-x="559" d="M184 756q0 43 27 74.5t68 31.5t68.5 -31.5t27.5 -74.5t-27.5 -75t-68.5 -32t-68 32t-27 75z" />
<glyph unicode="&#xb8;" horiz-adv-x="489" d="M4 -356l105 266h124l-145 -266h-84z" />
<glyph unicode="&#xb9;" horiz-adv-x="589" d="M80 1241l213 125h86v-676h-94v576l-164 -95z" />
<glyph unicode="&#xba;" horiz-adv-x="759" d="M59 1135q0 72 19.5 140t59.5 120.5t100.5 84t140.5 31.5t140.5 -31.5t100 -85t60 -121t20.5 -140.5q0 -72 -20.5 -140.5t-60 -123t-100 -87t-140.5 -32.5q-78 -1 -139 32q-59 33 -99.5 87.5t-61 124t-20.5 141.5zM154 1135q0 -57 14 -111.5t41 -97.5q29 -43 71 -70 t99 -27t100 27t71 70t42 97t14 112q0 55 -14 109t-42 95t-71 67t-100 26t-100 -26t-71 -67t-41 -95t-13 -109z" />
<glyph unicode="&#xbb;" horiz-adv-x="950" d="M70 850l69 59l381 -387l-381 -395l-67 68l309 325zM432 860l72 62l385 -400l-379 -401l-68 63l310 336z" />
<glyph unicode="&#xbc;" horiz-adv-x="1484" d="M76 59l1266 1313l65 -65l-1270 -1317zM82 1241l213 125h86v-676h-94v576l-164 -95zM877 190v76l360 412h76v-416h88v-72h-88v-184h-92v184h-344zM973 262h248v285z" />
<glyph unicode="&#xbd;" horiz-adv-x="1484" d="M53 59l1266 1313l65 -65l-1270 -1317zM86 1241l213 125h86v-676h-94v576l-164 -95zM925 555q37 59 89.5 99t146.5 40q104 0 156.5 -49t52.5 -133q0 -78 -39 -140.5t-94 -125.5q-33 -37 -80 -83t-82 -79h313v-78h-446v55q63 61 114.5 111.5t104.5 110.5q53 59 83 112.5 t30 106.5q0 51 -31 81.5t-88 30.5q-53 0 -89 -24.5t-67 -75.5z" />
<glyph unicode="&#xbe;" horiz-adv-x="1484" d="M88 801l74 43q29 -41 65.5 -63.5t92.5 -22.5q66 0 104.5 31.5t38.5 84.5q0 66 -48 98t-120 34v67q66 6 111 36t45 83q0 47 -36 77.5t-97 30.5q-88 0 -144 -83l-67 45q37 55 93 85.5t130 30.5q92 0 154.5 -49t62.5 -131q0 -57 -35 -96t-88 -60q59 -16 96 -55t37 -110 q0 -94 -68.5 -145.5t-166.5 -51.5q-158 0 -234 121zM123 59l1266 1313l65 -65l-1270 -1317zM864 190v76l360 412h76v-416h88v-72h-88v-184h-92v184h-344zM960 262h248v285z" />
<glyph unicode="&#xbf;" horiz-adv-x="720" d="M16 -96q0 109 52.5 197.5t128.5 168.5q37 39 62.5 71t40.5 59.5t22.5 55t7.5 62.5v53h104v-61q0 -92 -43 -159.5t-100 -127.5q-41 -43 -71 -80t-51.5 -74.5t-31.5 -78.5t-10 -92q0 -104 63.5 -162t174.5 -58q49 0 91 15.5t76.5 40t62.5 55.5t50 64l78 -56 q-23 -37 -56.5 -73.5t-77.5 -67.5t-101.5 -50.5t-127.5 -19.5q-166 0 -255 86t-89 232zM301 903q0 39 22.5 68.5t59.5 29.5q35 0 58.5 -28.5t23.5 -69.5t-23.5 -69.5t-58.5 -28.5q-37 0 -59.5 28.5t-22.5 69.5z" />
<glyph unicode="&#xc0;" horiz-adv-x="1126" d="M0 0l518 1366h84l524 -1366h-116l-168 438h-563l-164 -438h-115zM315 541h490l-250 659zM317 1716l76 82l338 -286l-49 -56z" />
<glyph unicode="&#xc1;" horiz-adv-x="1126" d="M0 0l518 1366h84l524 -1366h-116l-168 438h-563l-164 -438h-115zM315 541h490l-250 659zM368 1516l338 286l74 -86l-363 -260z" />
<glyph unicode="&#xc2;" horiz-adv-x="1126" d="M0 0l518 1366h84l524 -1366h-116l-168 438h-563l-164 -438h-115zM266 1499l256 307h82l252 -307l-67 -47l-226 266l-227 -266zM315 541h490l-250 659z" />
<glyph unicode="&#xc3;" horiz-adv-x="1126" d="M0 0l518 1366h84l524 -1366h-116l-168 438h-563l-164 -438h-115zM211 1567q29 72 79 118t118 46q41 0 82 -19.5t80 -42.5q23 -14 52 -31.5t58 -17.5q72 0 125 109l74 -35q-31 -78 -80 -120t-119 -42q-33 0 -68.5 17.5t-74.5 39.5q-39 23 -66.5 38.5t-60.5 15.5 q-70 0 -125 -113zM315 541h490l-250 659z" />
<glyph unicode="&#xc4;" horiz-adv-x="1163" d="M2 0l518 1366h84l524 -1366h-116l-168 438h-563l-164 -438h-115zM307 1659q0 37 23.5 63.5t56.5 26.5t55.5 -26.5t22.5 -63.5q0 -39 -22.5 -64.5t-55.5 -25.5t-56.5 25.5t-23.5 64.5zM317 541h490l-250 659zM633 1659q0 37 23.5 63.5t56.5 26.5t55 -26.5t22 -63.5 q0 -39 -22 -64.5t-55 -25.5t-56.5 25.5t-23.5 64.5z" />
<glyph unicode="&#xc5;" horiz-adv-x="1128" d="M2 0l514 1358q-55 12 -92 55q-51 61 -51 141q0 82 51 142.5t141 60.5q88 0 139.5 -60.5t51.5 -140.5q0 -41 -13.5 -76.5t-38 -64.5t-61.5 -45q-16 -8 -37 -12l522 -1358h-116l-168 438h-563l-164 -438h-115zM317 541h490l-250 659zM442 1556q0 -53 34 -95t89 -42 q53 0 87 41t34 94v2q0 53 -34 94.5t-87 41.5q-55 0 -89 -41t-34 -95z" />
<glyph unicode="&#xc6;" horiz-adv-x="1695" d="M0 0l825 1366h805v-100h-639v-490h457v-102h-457v-574h678v-100h-790v444h-486l-270 -444h-123zM453 547h426v710z" />
<glyph unicode="&#xc7;" horiz-adv-x="1136" d="M100 678q0 174 42 307t115 223t169 137.5t207 47.5q168 0 276.5 -77t167.5 -200l-94 -51q-23 43 -53.5 84t-73.5 72.5t-96 50t-119 18.5q-90 0 -168 -40t-135 -117.5t-89 -192.5t-32 -264q0 -133 32 -243.5t89 -189.5t139 -123t180 -44q66 0 118 17.5t93 47t74 69.5 t57 85l88 -53q-31 -57 -70.5 -106.5t-92 -85.5t-119 -56.5t-150.5 -20.5q-129 0 -232.5 49.5t-175 141.5t-109.5 222t-38 292zM498 -356l105 266h124l-145 -266h-84z" />
<glyph unicode="&#xc8;" horiz-adv-x="999" d="M166 0v1366h766v-100h-653v-490h473v-102h-476v-574h697v-100h-807zM309 1716l76 82l338 -286l-49 -56z" />
<glyph unicode="&#xc9;" horiz-adv-x="999" d="M166 0v1366h766v-100h-653v-490h473v-102h-476v-574h697v-100h-807zM366 1516l338 286l74 -86l-363 -260z" />
<glyph unicode="&#xca;" horiz-adv-x="999" d="M166 0v1366h766v-100h-653v-490h473v-102h-476v-574h697v-100h-807zM247 1499l256 307h82l252 -307l-67 -47l-226 266l-227 -266z" />
<glyph unicode="&#xcb;" horiz-adv-x="999" d="M166 0v1366h766v-100h-653v-490h473v-102h-476v-574h697v-100h-807zM307 1675q0 37 23.5 63.5t56.5 26.5t55.5 -26.5t22.5 -63.5q0 -39 -22.5 -64.5t-55.5 -25.5t-56.5 25.5t-23.5 64.5zM633 1675q0 37 23.5 63.5t56.5 26.5t55 -26.5t22 -63.5q0 -39 -22 -64.5t-55 -25.5 t-56.5 25.5t-23.5 64.5z" />
<glyph unicode="&#xcc;" horiz-adv-x="444" d="M6 1716l76 82l338 -286l-49 -56zM166 0v1366h113v-1366h-113z" />
<glyph unicode="&#xcd;" horiz-adv-x="444" d="M41 1516l338 286l74 -86l-363 -260zM166 0v1366h113v-1366h-113z" />
<glyph unicode="&#xce;" horiz-adv-x="444" d="M-64 1499l256 307h82l252 -307l-67 -47l-226 266l-227 -266zM166 0v1366h113v-1366h-113z" />
<glyph unicode="&#xcf;" horiz-adv-x="444" d="M-12 1657q0 37 23.5 63.5t56.5 26.5t55.5 -26.5t22.5 -63.5q0 -39 -22.5 -64.5t-55.5 -25.5t-56.5 25.5t-23.5 64.5zM166 0v1366h113v-1366h-113zM314 1657q0 37 23.5 63.5t56.5 26.5t55 -26.5t22 -63.5q0 -39 -22 -64.5t-55 -25.5t-56.5 25.5t-23.5 64.5z" />
<glyph unicode="&#xd0;" horiz-adv-x="1241" d="M4 678v96h162v592h336q92 0 180 -17.5t160 -54.5q147 -74 230 -222t83 -370q0 -274 -109.5 -442t-302.5 -227q-53 -16 -115.5 -24.5t-125.5 -8.5h-336v678h-162zM276 100h232q53 4 100 9.5t90 19.5q156 53 248 190.5t92 374.5q0 180 -58 300t-165 188q-66 41 -149.5 61.5 t-176.5 20.5h-213v-490h340v-96h-340v-578z" />
<glyph unicode="&#xd1;" horiz-adv-x="1325" d="M166 0v1366h119l764 -1149v1149h110v-1366h-98l-785 1178v-1178h-110zM342 1567q29 72 79 118t118 46q41 0 82 -19.5t80 -42.5q23 -14 52 -31.5t58 -17.5q72 0 125 109l74 -35q-31 -78 -80 -120t-119 -42q-33 0 -68.5 17.5t-74.5 39.5q-39 23 -66.5 38.5t-60.5 15.5 q-70 0 -125 -113z" />
<glyph unicode="&#xd2;" horiz-adv-x="1316" d="M100 684q0 137 36 265t106.5 226.5t175 158t244.5 59.5q141 0 245.5 -60.5t173 -160t102.5 -227.5t34 -261t-34 -261t-102.5 -227.5t-173 -161t-245.5 -61.5q-144 1 -250 60q-104 61 -174 160.5t-104 227.5t-34 263zM217 684q0 -111 27 -220.5t82 -197.5q55 -86 139 -139 t197 -53t194.5 54t136 140t81 195.5t26.5 220.5t-25.5 219.5t-80 194.5t-137.5 140t-195 54q-117 0 -201 -53t-138.5 -140t-80 -195.5t-25.5 -219.5zM446 1716l76 82l338 -286l-49 -56z" />
<glyph unicode="&#xd3;" horiz-adv-x="1316" d="M100 684q0 137 36 265t106.5 226.5t175 158t244.5 59.5q141 0 245.5 -60.5t173 -160t102.5 -227.5t34 -261t-34 -261t-102.5 -227.5t-173 -161t-245.5 -61.5q-144 1 -250 60q-104 61 -174 160.5t-104 227.5t-34 263zM217 684q0 -111 27 -220.5t82 -197.5q55 -86 139 -139 t197 -53t194.5 54t136 140t81 195.5t26.5 220.5t-25.5 219.5t-80 194.5t-137.5 140t-195 54q-117 0 -201 -53t-138.5 -140t-80 -195.5t-25.5 -219.5zM461 1516l338 286l74 -86l-363 -260z" />
<glyph unicode="&#xd4;" horiz-adv-x="1316" d="M100 684q0 137 36 265t106.5 226.5t175 158t244.5 59.5q141 0 245.5 -60.5t173 -160t102.5 -227.5t34 -261t-34 -261t-102.5 -227.5t-173 -161t-245.5 -61.5q-144 1 -250 60q-104 61 -174 160.5t-104 227.5t-34 263zM217 684q0 -111 27 -220.5t82 -197.5q55 -86 139 -139 t197 -53t194.5 54t136 140t81 195.5t26.5 220.5t-25.5 219.5t-80 194.5t-137.5 140t-195 54q-117 0 -201 -53t-138.5 -140t-80 -195.5t-25.5 -219.5zM364 1499l256 307h82l252 -307l-67 -47l-226 266l-227 -266z" />
<glyph unicode="&#xd5;" horiz-adv-x="1316" d="M100 684q0 137 36 265t106.5 226.5t175 158t244.5 59.5q141 0 245.5 -60.5t173 -160t102.5 -227.5t34 -261t-34 -261t-102.5 -227.5t-173 -161t-245.5 -61.5q-144 1 -250 60q-104 61 -174 160.5t-104 227.5t-34 263zM217 684q0 -111 27 -220.5t82 -197.5q55 -86 139 -139 t197 -53t194.5 54t136 140t81 195.5t26.5 220.5t-25.5 219.5t-80 194.5t-137.5 140t-195 54q-117 0 -201 -53t-138.5 -140t-80 -195.5t-25.5 -219.5zM326 1567q29 72 79 118t118 46q41 0 82 -19.5t80 -42.5q23 -14 52 -31.5t58 -17.5q72 0 125 109l74 -35q-31 -78 -80 -120 t-119 -42q-33 0 -68.5 17.5t-74.5 39.5q-39 23 -66.5 38.5t-60.5 15.5q-70 0 -125 -113z" />
<glyph unicode="&#xd6;" horiz-adv-x="1316" d="M100 684q0 137 36 265t106.5 226.5t175 158t244.5 59.5q141 0 245.5 -60.5t173 -160t102.5 -227.5t34 -261t-34 -261t-102.5 -227.5t-173 -161t-245.5 -61.5q-144 1 -250 60q-104 61 -174 160.5t-104 227.5t-34 263zM217 684q0 -111 27 -220.5t82 -197.5q55 -86 139 -139 t197 -53t194.5 54t136 140t81 195.5t26.5 220.5t-25.5 219.5t-80 194.5t-137.5 140t-195 54q-117 0 -201 -53t-138.5 -140t-80 -195.5t-25.5 -219.5zM424 1675q0 37 23.5 63.5t56.5 26.5t55.5 -26.5t22.5 -63.5q0 -39 -22.5 -64.5t-55.5 -25.5t-56.5 25.5t-23.5 64.5z M750 1675q0 37 23.5 63.5t56.5 26.5t55 -26.5t22 -63.5q0 -39 -22 -64.5t-55 -25.5t-56.5 25.5t-23.5 64.5z" />
<glyph unicode="&#xd7;" d="M152 377l305 303l-305 305l71 74l305 -305l308 305l71 -74l-305 -305l305 -303l-71 -76l-308 307l-305 -307z" />
<glyph unicode="&#xd8;" horiz-adv-x="1316" d="M100 684q0 137 36 265t106.5 226.5t175 158t244.5 59.5q127 0 221 -48.5t161 -125.5l134 167l75 -59l-151 -190q55 -98 85 -214t30 -239q0 -133 -34 -261t-102.5 -227.5t-173 -161t-245.5 -61.5q-115 0 -205 40t-158 108l-125 -158l-72 60l136 172q-68 100 -103 227 t-35 262zM217 684q0 -104 24.5 -205.5t73.5 -187.5l660 837q-53 74 -131 119t-182 45q-117 0 -201 -53t-138.5 -140t-80 -195.5t-25.5 -219.5zM369 209q53 -61 126.5 -98t166.5 -37q113 0 194.5 54t136 140t81 195.5t26.5 220.5q0 92 -19.5 183t-56.5 171z" />
<glyph unicode="&#xd9;" horiz-adv-x="1292" d="M156 455v911h112v-881q0 -188 97.5 -298.5t279.5 -110.5q184 0 281.5 107.5t97.5 301.5v881h113v-911q0 -117 -39 -207t-105.5 -150.5t-157 -92.5t-192.5 -32q-104 0 -193.5 32t-155 92.5t-102 150.5t-36.5 207zM407 1716l76 82l338 -286l-49 -56z" />
<glyph unicode="&#xda;" horiz-adv-x="1292" d="M156 455v911h112v-881q0 -188 97.5 -298.5t279.5 -110.5q184 0 281.5 107.5t97.5 301.5v881h113v-911q0 -117 -39 -207t-105.5 -150.5t-157 -92.5t-192.5 -32q-104 0 -193.5 32t-155 92.5t-102 150.5t-36.5 207zM477 1516l338 286l74 -86l-363 -260z" />
<glyph unicode="&#xdb;" horiz-adv-x="1292" d="M156 455v911h112v-881q0 -188 97.5 -298.5t279.5 -110.5q184 0 281.5 107.5t97.5 301.5v881h113v-911q0 -117 -39 -207t-105.5 -150.5t-157 -92.5t-192.5 -32q-104 0 -193.5 32t-155 92.5t-102 150.5t-36.5 207zM364 1499l256 307h82l252 -307l-67 -47l-226 266 l-227 -266z" />
<glyph unicode="&#xdc;" horiz-adv-x="1292" d="M156 455v911h112v-881q0 -188 97.5 -298.5t279.5 -110.5q184 0 281.5 107.5t97.5 301.5v881h113v-911q0 -117 -39 -207t-105.5 -150.5t-157 -92.5t-192.5 -32q-104 0 -193.5 32t-155 92.5t-102 150.5t-36.5 207zM403 1675q0 37 23.5 63.5t56.5 26.5t55.5 -26.5 t22.5 -63.5q0 -39 -22.5 -64.5t-55.5 -25.5t-56.5 25.5t-23.5 64.5zM729 1675q0 37 23.5 63.5t56.5 26.5t55 -26.5t22 -63.5q0 -39 -22 -64.5t-55 -25.5t-56.5 25.5t-23.5 64.5z" />
<glyph unicode="&#xdd;" horiz-adv-x="1054" d="M0 1366h127l395 -604l410 604h123l-480 -707v-659h-112v657zM366 1516l338 286l74 -86l-363 -260z" />
<glyph unicode="&#xde;" horiz-adv-x="1052" d="M166 0v1366h113v-256h307q207 0 319.5 -101.5t112.5 -297.5q0 -98 -32 -172t-89 -123t-136 -74t-171 -25h-311v-317h-113zM279 418h311q143 0 225 77.5t82 213.5q0 141 -77 221t-232 80h-309v-592z" />
<glyph unicode="&#xdf;" horiz-adv-x="1073" d="M35 885v90h143v65q0 172 98.5 262.5t255.5 90.5q160 0 250 -89.5t107 -256.5q4 -35 4 -76v-78h-158q-76 0 -135 -34t-59 -105q0 -33 11 -57.5t36.5 -48t67.5 -46t104 -49.5q131 -57 192.5 -128t61.5 -181q0 -123 -84 -195t-215 -72q-63 0 -111.5 10.5t-85.5 32t-64.5 52 t-52.5 71.5l88 56q35 -66 87.5 -98.5t138.5 -32.5q88 0 141 45t53 123q0 86 -58 140t-183 107q-53 23 -95.5 47.5t-72 55t-46 71.5t-16.5 95q0 98 66.5 156.5t179.5 68.5q27 2 52.5 4t54.5 2q-4 162 -69 241t-181 79q-125 0 -190.5 -72t-65.5 -223v-1008h-107v885h-143z" />
<glyph unicode="&#xe0;" horiz-adv-x="929" d="M80 276q0 106 54 177t140 112t195 57.5t219 18.5v43q0 113 -57.5 170t-163.5 57q-78 0 -138.5 -33.5t-99.5 -78.5l-73 57q51 63 124.5 104t190.5 41q324 0 324 -327v-674h-97l-8 84q-49 -49 -117.5 -78t-166.5 -29q-70 0 -129.5 19.5t-103.5 57.5t-68.5 94.5t-24.5 127.5 zM188 274q0 -53 19.5 -92t52.5 -64.5t75 -37.5t85 -12q82 0 151.5 34.5t116.5 81.5v365q-84 -2 -173 -12.5t-161.5 -40t-119 -83t-46.5 -139.5zM229 1380l76 82l338 -286l-49 -56z" />
<glyph unicode="&#xe1;" horiz-adv-x="929" d="M80 276q0 106 54 177t140 112t195 57.5t219 18.5v43q0 113 -57.5 170t-163.5 57q-78 0 -138.5 -33.5t-99.5 -78.5l-73 57q51 63 124.5 104t190.5 41q324 0 324 -327v-674h-97l-8 84q-49 -49 -117.5 -78t-166.5 -29q-70 0 -129.5 19.5t-103.5 57.5t-68.5 94.5t-24.5 127.5 zM188 274q0 -53 19.5 -92t52.5 -64.5t75 -37.5t85 -12q82 0 151.5 34.5t116.5 81.5v365q-84 -2 -173 -12.5t-161.5 -40t-119 -83t-46.5 -139.5zM319 1180l338 286l74 -86l-363 -260z" />
<glyph unicode="&#xe2;" horiz-adv-x="929" d="M80 276q0 106 54 177t140 112t195 57.5t219 18.5v43q0 113 -57.5 170t-163.5 57q-78 0 -138.5 -33.5t-99.5 -78.5l-73 57q51 63 124.5 104t190.5 41q324 0 324 -327v-674h-97l-8 84q-49 -49 -117.5 -78t-166.5 -29q-70 0 -129.5 19.5t-103.5 57.5t-68.5 94.5t-24.5 127.5 zM176 1163l256 307h82l252 -307l-67 -47l-226 266l-227 -266zM188 274q0 -53 19.5 -92t52.5 -64.5t75 -37.5t85 -12q82 0 151.5 34.5t116.5 81.5v365q-84 -2 -173 -12.5t-161.5 -40t-119 -83t-46.5 -139.5z" />
<glyph unicode="&#xe3;" horiz-adv-x="929" d="M80 276q0 106 54 177t140 112t195 57.5t219 18.5v43q0 113 -57.5 170t-163.5 57q-78 0 -138.5 -33.5t-99.5 -78.5l-73 57q51 63 124.5 104t190.5 41q324 0 324 -327v-674h-97l-8 84q-49 -49 -117.5 -78t-166.5 -29q-70 0 -129.5 19.5t-103.5 57.5t-68.5 94.5t-24.5 127.5 zM127 1231q29 72 79 118t118 46q41 0 82 -19.5t80 -42.5q23 -14 52 -31.5t58 -17.5q72 0 125 109l74 -35q-31 -78 -80 -120t-119 -42q-33 0 -68.5 17.5t-74.5 39.5q-39 23 -66.5 38.5t-60.5 15.5q-70 0 -125 -113zM188 274q0 -53 19.5 -92t52.5 -64.5t75 -37.5t85 -12 q82 0 151.5 34.5t116.5 81.5v365q-84 -2 -173 -12.5t-161.5 -40t-119 -83t-46.5 -139.5z" />
<glyph unicode="&#xe4;" horiz-adv-x="929" d="M80 276q0 106 54 177t140 112t195 57.5t219 18.5v43q0 113 -57.5 170t-163.5 57q-78 0 -138.5 -33.5t-99.5 -78.5l-73 57q51 63 124.5 104t190.5 41q324 0 324 -327v-674h-97l-8 84q-49 -49 -117.5 -78t-166.5 -29q-70 0 -129.5 19.5t-103.5 57.5t-68.5 94.5t-24.5 127.5 zM188 274q0 -53 19.5 -92t52.5 -64.5t75 -37.5t85 -12q82 0 151.5 34.5t116.5 81.5v365q-84 -2 -173 -12.5t-161.5 -40t-119 -83t-46.5 -139.5zM231 1321q0 37 23.5 63.5t56.5 26.5t55.5 -26.5t22.5 -63.5q0 -39 -22.5 -64.5t-55.5 -25.5t-56.5 25.5t-23.5 64.5zM557 1321 q0 37 23.5 63.5t56.5 26.5t55 -26.5t22 -63.5q0 -39 -22 -64.5t-55 -25.5t-56.5 25.5t-23.5 64.5z" />
<glyph unicode="&#xe5;" horiz-adv-x="929" d="M80 276q0 106 54 177t140 112t195 57.5t219 18.5v43q0 113 -57.5 170t-163.5 57q-78 0 -138.5 -33.5t-99.5 -78.5l-73 57q51 63 124.5 104t190.5 41q324 0 324 -327v-674h-97l-8 84q-49 -49 -117.5 -78t-166.5 -29q-70 0 -129.5 19.5t-103.5 57.5t-68.5 94.5t-24.5 127.5 zM188 274q0 -53 19.5 -92t52.5 -64.5t75 -37.5t85 -12q82 0 151.5 34.5t116.5 81.5v365q-84 -2 -173 -12.5t-161.5 -40t-119 -83t-46.5 -139.5zM288 1296q0 82 51.5 142.5t141.5 60.5q88 0 139 -60.5t51 -140.5q0 -41 -13 -76.5t-37.5 -64.5t-60.5 -45t-79 -16 q-90 0 -141.5 60.5t-51.5 139.5zM358 1298q0 -53 34 -95t89 -42q53 0 87 41t34 94v2q0 53 -34 94.5t-87 41.5q-55 0 -89 -41t-34 -95z" />
<glyph unicode="&#xe6;" horiz-adv-x="1554" d="M80 276q0 117 65.5 189t169.5 104q86 29 181.5 36t203.5 7v72q0 117 -63.5 172t-167.5 55q-74 0 -136.5 -31.5t-103.5 -80.5l-77 53q51 66 126.5 107.5t198.5 41.5q119 0 189.5 -43t105.5 -127q47 78 119 124t190 46q100 0 174 -34.5t124.5 -99t75 -154.5t26.5 -203h-678 q0 -100 17.5 -181t54 -139.5t96 -90t145.5 -31.5q100 0 162.5 45t105.5 125l78 -45q-25 -47 -55.5 -86t-72.5 -68t-96 -45.5t-126 -16.5t-128 16.5t-98 44.5t-71 62.5t-47 73.5q-18 -39 -47 -73.5t-69 -62.5t-94 -44.5t-124 -16.5q-158 0 -256 77t-98 222zM188 274 q0 -104 68 -155t180 -51q57 0 106.5 18t84.5 50t54 75t19 92v219q-84 0 -160.5 -4t-146.5 -20q-86 -20 -145.5 -74.5t-59.5 -149.5zM803 600h559q-4 82 -29.5 140.5t-63.5 96t-87 56t-101 18.5q-123 0 -196.5 -81.5t-81.5 -229.5z" />
<glyph unicode="&#xe7;" horiz-adv-x="931" d="M96 487q0 129 35 225.5t93.5 161t135 96t162.5 31.5q76 0 132.5 -19t96.5 -50t67.5 -68t43.5 -73l-84 -50q-37 74 -97 122t-159 48q-72 0 -130 -31.5t-100 -88t-65.5 -133t-23.5 -169.5q0 -96 23.5 -172.5t67.5 -132t105.5 -85t135.5 -29.5q172 0 266 161l80 -51 q-51 -92 -139.5 -147.5t-213.5 -55.5q-92 0 -170.5 34t-137 99.5t-91.5 160t-33 216.5zM366 -356l105 266h124l-145 -266h-84z" />
<glyph unicode="&#xe8;" horiz-adv-x="995" d="M96 489q0 119 31 214.5t86 161t132 101t169 35.5q98 0 173 -35.5t126 -100t78 -157t31 -202.5h-723q0 -207 88 -322.5t256 -115.5q104 0 171.5 50t110.5 126l78 -49q-25 -43 -56.5 -82t-75.5 -70t-101.5 -48.5t-130.5 -17.5q-209 0 -326 134.5t-117 377.5zM207 596h594 q-4 82 -31 142.5t-66.5 98t-89 56t-100.5 18.5q-117 0 -201 -74.5t-106 -240.5zM276 1380l76 82l338 -286l-49 -56z" />
<glyph unicode="&#xe9;" horiz-adv-x="995" d="M96 489q0 119 31 214.5t86 161t132 101t169 35.5q98 0 173 -35.5t126 -100t78 -157t31 -202.5h-723q0 -207 88 -322.5t256 -115.5q104 0 171.5 50t110.5 126l78 -49q-25 -43 -56.5 -82t-75.5 -70t-101.5 -48.5t-130.5 -17.5q-209 0 -326 134.5t-117 377.5zM207 596h594 q-4 82 -31 142.5t-66.5 98t-89 56t-100.5 18.5q-117 0 -201 -74.5t-106 -240.5zM315 1180l338 286l74 -86l-363 -260z" />
<glyph unicode="&#xea;" horiz-adv-x="995" d="M96 489q0 119 31 214.5t86 161t132 101t169 35.5q98 0 173 -35.5t126 -100t78 -157t31 -202.5h-723q0 -207 88 -322.5t256 -115.5q104 0 171.5 50t110.5 126l78 -49q-25 -43 -56.5 -82t-75.5 -70t-101.5 -48.5t-130.5 -17.5q-209 0 -326 134.5t-117 377.5zM207 596h594 q-4 82 -31 142.5t-66.5 98t-89 56t-100.5 18.5q-117 0 -201 -74.5t-106 -240.5zM219 1163l256 307h82l252 -307l-67 -47l-226 266l-227 -266z" />
<glyph unicode="&#xeb;" horiz-adv-x="995" d="M96 489q0 119 31 214.5t86 161t132 101t169 35.5q98 0 173 -35.5t126 -100t78 -157t31 -202.5h-723q0 -207 88 -322.5t256 -115.5q104 0 171.5 50t110.5 126l78 -49q-25 -43 -56.5 -82t-75.5 -70t-101.5 -48.5t-130.5 -17.5q-209 0 -326 134.5t-117 377.5zM207 596h594 q-4 82 -31 142.5t-66.5 98t-89 56t-100.5 18.5q-117 0 -201 -74.5t-106 -240.5zM283 1321q0 37 23.5 63.5t56.5 26.5t55.5 -26.5t22.5 -63.5q0 -39 -22.5 -64.5t-55.5 -25.5t-56.5 25.5t-23.5 64.5zM609 1321q0 37 23.5 63.5t56.5 26.5t55 -26.5t22 -63.5q0 -39 -22 -64.5 t-55 -25.5t-56.5 25.5t-23.5 64.5z" />
<glyph unicode="&#xec;" horiz-adv-x="391" d="M-53 1380l76 82l338 -286l-49 -56zM141 0v975h107v-975h-107z" />
<glyph unicode="&#xed;" horiz-adv-x="391" d="M51 1180l338 286l74 -86l-363 -260zM141 0v975h107v-975h-107z" />
<glyph unicode="&#xee;" horiz-adv-x="391" d="M-97 1163l256 307h82l252 -307l-67 -47l-226 266l-227 -266zM141 0v975h107v-975h-107z" />
<glyph unicode="&#xef;" horiz-adv-x="391" d="M-45 1321q0 37 23.5 63.5t56.5 26.5t55.5 -26.5t22.5 -63.5q0 -39 -22.5 -64.5t-55.5 -25.5t-56.5 25.5t-23.5 64.5zM141 0v975h107v-975h-107zM281 1321q0 37 23.5 63.5t56.5 26.5t55 -26.5t22 -63.5q0 -39 -22 -64.5t-55 -25.5t-56.5 25.5t-23.5 64.5z" />
<glyph unicode="&#xf0;" horiz-adv-x="1052" d="M96 492q0 119 32 214t88 160.5t135 100t173 34.5q92 0 153.5 -20t108.5 -49q-35 78 -84 146.5t-110 113.5l-84 -113l-66 43l84 111q-41 25 -96 45t-104 33l22 78q66 -10 124 -33t106 -51l88 114l63 -43l-88 -114q70 -51 128 -120t100 -158t65.5 -199.5t23.5 -241.5 q0 -147 -32.5 -254t-91 -175.5t-136 -102.5t-168.5 -34q-90 0 -169.5 32t-138 96.5t-92.5 160.5t-34 226zM203 492q0 -104 25.5 -183.5t69.5 -132.5t104.5 -80.5t127.5 -27.5q68 0 126.5 27.5t102.5 85t68.5 146.5t24.5 214q0 85 -12 159t-25 121q-59 37 -129 63.5 t-158 26.5q-143 0 -234 -108.5t-91 -310.5z" />
<glyph unicode="&#xf1;" horiz-adv-x="1067" d="M141 0v975h99l8 -90q61 47 138 81.5t187 34.5q358 0 359 -389v-612h-107v623q0 135 -65.5 210.5t-200.5 75.5q-98 0 -175 -39t-136 -88v-782h-107zM211 1231q29 72 79 118t118 46q41 0 82 -19.5t80 -42.5q23 -14 52 -31.5t58 -17.5q72 0 125 109l74 -35q-31 -78 -80 -120 t-119 -42q-33 0 -68.5 17.5t-74.5 39.5q-39 23 -66.5 38.5t-60.5 15.5q-70 0 -125 -113z" />
<glyph unicode="&#xf2;" horiz-adv-x="1062" d="M96 496q0 98 28 189t82 162t135 112.5t189 41.5q106 0 188.5 -43t137.5 -113.5t83 -162.5t28 -190q0 -100 -28 -193.5t-83 -164.5t-137 -114t-189 -43q-106 0 -188 43q-80 45 -135 117t-83 166t-28 193zM203 496q0 -80 20.5 -157t61.5 -138q41 -59 102.5 -96t142.5 -37 q84 0 145.5 37.5t102.5 98t61.5 136.5t20.5 154t-20.5 152.5t-61.5 134t-102.5 95t-145.5 35.5t-145 -35.5t-102 -94t-60.5 -133.5t-19.5 -152zM293 1380l76 82l338 -286l-49 -56z" />
<glyph unicode="&#xf3;" horiz-adv-x="1062" d="M96 496q0 98 28 189t82 162t135 112.5t189 41.5q106 0 188.5 -43t137.5 -113.5t83 -162.5t28 -190q0 -100 -28 -193.5t-83 -164.5t-137 -114t-189 -43q-106 0 -188 43q-80 45 -135 117t-83 166t-28 193zM203 496q0 -80 20.5 -157t61.5 -138q41 -59 102.5 -96t142.5 -37 q84 0 145.5 37.5t102.5 98t61.5 136.5t20.5 154t-20.5 152.5t-61.5 134t-102.5 95t-145.5 35.5t-145 -35.5t-102 -94t-60.5 -133.5t-19.5 -152zM334 1180l338 286l74 -86l-363 -260z" />
<glyph unicode="&#xf4;" horiz-adv-x="1062" d="M96 496q0 98 28 189t82 162t135 112.5t189 41.5q106 0 188.5 -43t137.5 -113.5t83 -162.5t28 -190q0 -100 -28 -193.5t-83 -164.5t-137 -114t-189 -43q-106 0 -188 43q-80 45 -135 117t-83 166t-28 193zM203 496q0 -80 20.5 -157t61.5 -138q41 -59 102.5 -96t142.5 -37 q84 0 145.5 37.5t102.5 98t61.5 136.5t20.5 154t-20.5 152.5t-61.5 134t-102.5 95t-145.5 35.5t-145 -35.5t-102 -94t-60.5 -133.5t-19.5 -152zM233 1163l256 307h82l252 -307l-67 -47l-226 266l-227 -266z" />
<glyph unicode="&#xf5;" horiz-adv-x="1062" d="M96 496q0 98 28 189t82 162t135 112.5t189 41.5q106 0 188.5 -43t137.5 -113.5t83 -162.5t28 -190q0 -100 -28 -193.5t-83 -164.5t-137 -114t-189 -43q-106 0 -188 43q-80 45 -135 117t-83 166t-28 193zM188 1231q29 72 79 118t118 46q41 0 82 -19.5t80 -42.5 q23 -14 52 -31.5t58 -17.5q72 0 125 109l74 -35q-31 -78 -80 -120t-119 -42q-33 0 -68.5 17.5t-74.5 39.5q-39 23 -66.5 38.5t-60.5 15.5q-70 0 -125 -113zM203 496q0 -80 20.5 -157t61.5 -138q41 -59 102.5 -96t142.5 -37q84 0 145.5 37.5t102.5 98t61.5 136.5t20.5 154 t-20.5 152.5t-61.5 134t-102.5 95t-145.5 35.5t-145 -35.5t-102 -94t-60.5 -133.5t-19.5 -152z" />
<glyph unicode="&#xf6;" horiz-adv-x="1062" d="M96 496q0 98 28 189t82 162t135 112.5t189 41.5q106 0 188.5 -43t137.5 -113.5t83 -162.5t28 -190q0 -100 -28 -193.5t-83 -164.5t-137 -114t-189 -43q-106 0 -188 43q-80 45 -135 117t-83 166t-28 193zM203 496q0 -80 20.5 -157t61.5 -138q41 -59 102.5 -96t142.5 -37 q84 0 145.5 37.5t102.5 98t61.5 136.5t20.5 154t-20.5 152.5t-61.5 134t-102.5 95t-145.5 35.5t-145 -35.5t-102 -94t-60.5 -133.5t-19.5 -152zM231 1321q0 37 23.5 63.5t56.5 26.5t55.5 -26.5t22.5 -63.5q0 -39 -22.5 -64.5t-55.5 -25.5t-56.5 25.5t-23.5 64.5zM557 1321 q0 37 23.5 63.5t56.5 26.5t55 -26.5t22 -63.5q0 -39 -22 -64.5t-55 -25.5t-56.5 25.5t-23.5 64.5z" />
<glyph unicode="&#xf7;" d="M68 629v100h921v-100h-921zM438 330q0 43 25.5 72.5t64.5 29.5t63.5 -29.5t24.5 -72.5q0 -41 -24.5 -70t-63.5 -29t-64.5 29t-25.5 70zM438 1034q0 43 25.5 72t64.5 29t63.5 -29t24.5 -72q0 -41 -24.5 -70.5t-63.5 -29.5t-64.5 29.5t-25.5 70.5z" />
<glyph unicode="&#xf8;" horiz-adv-x="1062" d="M96 496q0 98 28 189t82 162t135 112.5t189 41.5q61 0 114.5 -15t100.5 -44l95 162l75 -43l-100 -170q74 -74 113 -178.5t39 -220.5q0 -100 -28 -193.5t-83 -164.5t-137 -114t-189 -43q-61 0 -115.5 15.5t-97.5 44.5l-96 -162l-74 45l101 172q-74 74 -113 180.5t-39 223.5 zM203 496q0 -86 25.5 -169t72.5 -145l397 678q-35 23 -76.5 37t-91.5 14q-84 0 -145 -35.5t-102 -94t-60.5 -133.5t-19.5 -152zM365 119q35 -23 75.5 -37t89.5 -14q84 0 145.5 37.5t102.5 98t61.5 136.5t20.5 154q0 86 -24.5 165.5t-71.5 141.5z" />
<glyph unicode="&#xf9;" horiz-adv-x="1060" d="M133 346v629h109v-629q0 -147 72.5 -211.5t195.5 -64.5q92 0 170 37.5t131 97.5v770h109v-975h-97l-8 96q-55 -47 -129 -83t-190 -36q-172 0 -267.5 89.5t-95.5 279.5zM282 1380l76 82l338 -286l-49 -56z" />
<glyph unicode="&#xfa;" horiz-adv-x="1060" d="M133 346v629h109v-629q0 -147 72.5 -211.5t195.5 -64.5q92 0 170 37.5t131 97.5v770h109v-975h-97l-8 96q-55 -47 -129 -83t-190 -36q-172 0 -267.5 89.5t-95.5 279.5zM358 1180l338 286l74 -86l-363 -260z" />
<glyph unicode="&#xfb;" horiz-adv-x="1060" d="M133 346v629h109v-629q0 -147 72.5 -211.5t195.5 -64.5q92 0 170 37.5t131 97.5v770h109v-975h-97l-8 96q-55 -47 -129 -83t-190 -36q-172 0 -267.5 89.5t-95.5 279.5zM241 1163l256 307h82l252 -307l-67 -47l-226 266l-227 -266z" />
<glyph unicode="&#xfc;" horiz-adv-x="1060" d="M133 346v629h109v-629q0 -147 72.5 -211.5t195.5 -64.5q92 0 170 37.5t131 97.5v770h109v-975h-97l-8 96q-55 -47 -129 -83t-190 -36q-172 0 -267.5 89.5t-95.5 279.5zM289 1321q0 37 23.5 63.5t56.5 26.5t55.5 -26.5t22.5 -63.5q0 -39 -22.5 -64.5t-55.5 -25.5 t-56.5 25.5t-23.5 64.5zM615 1321q0 37 23.5 63.5t56.5 26.5t55 -26.5t22 -63.5q0 -39 -22 -64.5t-55 -25.5t-56.5 25.5t-23.5 64.5z" />
<glyph unicode="&#xfd;" horiz-adv-x="892" d="M0 975h121l330 -834l327 834h115l-498 -1239q-35 -84 -88 -117t-129 -33q-47 0 -93 9.5t-77 23.5l33 92q27 -10 63.5 -21.5t69.5 -11.5q51 0 80 23t53 84l86 215zM293 1180l338 286l74 -86l-363 -260z" />
<glyph unicode="&#xfe;" horiz-adv-x="1040" d="M141 -395v1761h107v-467q47 39 118.5 70.5t168.5 31.5q102 0 180 -36.5t129 -104t76.5 -160t25.5 -202.5q0 -117 -33.5 -213.5t-95 -165t-147.5 -105.5t-191 -37q-76 0 -133 17.5t-96 42.5v-432h-109zM250 139q37 -29 92 -49t127 -20q82 0 150.5 29.5t116.5 84t75 133 t27 177.5q0 86 -18.5 161.5t-57.5 132t-100.5 90t-149.5 33.5q-78 0 -146.5 -32.5t-115.5 -81.5v-658z" />
<glyph unicode="&#xff;" horiz-adv-x="892" d="M0 975h121l330 -834l327 834h115l-498 -1239q-35 -84 -88 -117t-129 -33q-47 0 -93 9.5t-77 23.5l33 92q27 -10 63.5 -21.5t69.5 -11.5q51 0 80 23t53 84l86 215zM215 1321q0 37 23.5 63.5t56.5 26.5t55.5 -26.5t22.5 -63.5q0 -39 -22.5 -64.5t-55.5 -25.5t-56.5 25.5 t-23.5 64.5zM541 1321q0 37 23.5 63.5t56.5 26.5t55 -26.5t22 -63.5q0 -39 -22 -64.5t-55 -25.5t-56.5 25.5t-23.5 64.5z" />
<glyph unicode="&#x152;" horiz-adv-x="1759" d="M100 692q0 158 48.5 283t137.5 212t214 133t276 46h918v-100h-627v-490h446v-102h-446v-574h666v-100h-955q-154 0 -278.5 48t-213.5 138t-137.5 218t-48.5 288zM217 688q0 -133 41 -240.5t116 -185.5t178 -120t226 -42h176v1166h-178q-127 0 -230.5 -41t-176 -117 t-112.5 -182.5t-40 -237.5z" />
<glyph unicode="&#x153;" horiz-adv-x="1662" d="M96 496q0 98 24.5 190t75 162t128 111.5t186.5 41.5q78 0 135 -17t99 -48t71 -73t49 -91q20 47 50 89t71 73t94.5 49t122.5 18q98 0 170 -35.5t120 -100t71.5 -156t25.5 -203.5h-669q0 -88 17 -167t54 -139.5t97.5 -96t146.5 -35.5q102 0 158.5 47t97.5 125l80 -43 q-25 -47 -55.5 -87t-70.5 -69t-93.5 -46.5t-120.5 -17.5q-145 0 -233.5 67t-129.5 179q-49 -111 -133 -178.5t-225 -67.5q-109 0 -186.5 43t-128 116t-75 166t-24.5 194zM203 496q0 -84 17 -161t54 -136t95.5 -95t140.5 -36t140.5 35.5t96 95t55 136.5t17.5 159 q0 88 -18.5 163.5t-56 132t-96 89t-138.5 32.5q-82 0 -140.5 -34.5t-95 -92t-54 -132t-17.5 -156.5zM920 596h548q-10 166 -85.5 240.5t-180.5 74.5q-113 0 -188.5 -77.5t-93.5 -237.5z" />
<glyph unicode="&#x178;" horiz-adv-x="1054" d="M0 1366h127l395 -604l410 604h123l-480 -707v-659h-112v657zM289 1655q0 37 23.5 63.5t56.5 26.5t55.5 -26.5t22.5 -63.5q0 -39 -22.5 -64.5t-55.5 -25.5t-56.5 25.5t-23.5 64.5zM615 1655q0 37 23.5 63.5t56.5 26.5t55 -26.5t22 -63.5q0 -39 -22 -64.5t-55 -25.5 t-56.5 25.5t-23.5 64.5z" />
<glyph unicode="&#x2c6;" horiz-adv-x="704" d="M57 1163l256 307h82l252 -307l-67 -47l-226 266l-227 -266z" />
<glyph unicode="&#x2dc;" horiz-adv-x="759" d="M47 1231q29 72 79 118t118 46q41 0 82 -19.5t80 -42.5q23 -14 52 -31.5t58 -17.5q72 0 125 109l74 -35q-31 -78 -80 -120t-119 -42q-33 0 -68.5 17.5t-74.5 39.5q-39 23 -66.5 38.5t-60.5 15.5q-70 0 -125 -113z" />
<glyph unicode="&#x2000;" horiz-adv-x="903" />
<glyph unicode="&#x2001;" horiz-adv-x="1806" />
<glyph unicode="&#x2002;" horiz-adv-x="903" />
<glyph unicode="&#x2003;" horiz-adv-x="1806" />
<glyph unicode="&#x2004;" horiz-adv-x="602" />
<glyph unicode="&#x2005;" horiz-adv-x="451" />
<glyph unicode="&#x2006;" horiz-adv-x="301" />
<glyph unicode="&#x2007;" horiz-adv-x="301" />
<glyph unicode="&#x2008;" horiz-adv-x="225" />
<glyph unicode="&#x2009;" horiz-adv-x="361" />
<glyph unicode="&#x200a;" horiz-adv-x="100" />
<glyph unicode="&#x2010;" horiz-adv-x="618" d="M92 489v107h434v-107h-434z" />
<glyph unicode="&#x2011;" horiz-adv-x="618" d="M92 489v107h434v-107h-434z" />
<glyph unicode="&#x2012;" horiz-adv-x="618" d="M92 489v107h434v-107h-434z" />
<glyph unicode="&#x2013;" horiz-adv-x="1067" d="M0 479v96h1067v-96h-1067z" />
<glyph unicode="&#x2014;" horiz-adv-x="2134" d="M0 479v96h2134v-96h-2134z" />
<glyph unicode="&#x2018;" horiz-adv-x="294" d="M53 1270q0 49 21.5 78.5t60.5 29.5q41 0 61.5 -30.5t20.5 -71.5q0 -47 -18.5 -70.5t-40.5 -34.5q16 -33 53 -66.5t72 -49.5l-23 -51q-39 20 -76 47.5t-66.5 61.5t-47 73t-17.5 84z" />
<glyph unicode="&#x2019;" horiz-adv-x="294" d="M12 1055q35 16 72 50t53 66q-23 10 -41 34t-18 71q0 41 20.5 71.5t61.5 30.5q39 0 60.5 -29.5t21.5 -78.5q0 -45 -17.5 -84t-47.5 -73t-66.5 -61.5t-75.5 -47.5z" />
<glyph unicode="&#x201a;" horiz-adv-x="303" d="M12 -123q35 16 72 51t53 66q-23 12 -41 35.5t-18 68.5q0 43 20.5 73t61.5 30q39 0 60.5 -30t21.5 -77q0 -45 -17.5 -85t-47.5 -73.5t-66.5 -60.5t-75.5 -47z" />
<glyph unicode="&#x201c;" horiz-adv-x="593" d="M53 1270q0 49 21.5 78.5t62.5 29.5t61.5 -30.5t20.5 -71.5q0 -47 -18.5 -70.5t-40.5 -34.5q16 -33 52 -66.5t71 -49.5l-23 -51q-39 20 -76 47.5t-66.5 61.5t-47 73t-17.5 84zM352 1270q0 49 21.5 78.5t60.5 29.5q41 0 61.5 -30.5t20.5 -71.5q0 -47 -18.5 -70.5 t-40.5 -34.5q16 -33 53 -66.5t72 -49.5l-23 -51q-39 20 -76 47.5t-66.5 61.5t-47 73t-17.5 84z" />
<glyph unicode="&#x201d;" horiz-adv-x="593" d="M12 1055q35 16 72 50t53 66q-23 10 -41 34t-18 71q0 41 20.5 71.5t61.5 30.5q39 0 60.5 -29.5t21.5 -78.5q0 -45 -17.5 -84t-47.5 -73t-66.5 -61.5t-75.5 -47.5zM311 1055q35 16 71 50t52 66q-23 10 -41 34t-18 71q0 41 20.5 71.5t61.5 30.5t62.5 -29.5t21.5 -78.5 q0 -45 -17.5 -84t-47.5 -73t-66.5 -61.5t-75.5 -47.5z" />
<glyph unicode="&#x201e;" horiz-adv-x="602" d="M12 -123q35 16 72 51t53 66q-23 12 -41 35.5t-18 68.5q0 43 20.5 73t61.5 30q39 0 60.5 -30t21.5 -77q0 -45 -17.5 -85t-47.5 -73.5t-66.5 -60.5t-75.5 -47zM311 -123q35 16 71 51t52 66q-23 12 -41 35.5t-18 68.5q0 43 20.5 73t61.5 30t62.5 -30t21.5 -77 q0 -45 -17.5 -85t-47.5 -73.5t-66.5 -60.5t-75.5 -47z" />
<glyph unicode="&#x2022;" horiz-adv-x="806" d="M102 766q0 61 24 116.5t64.5 97.5t95 65.5t117.5 23.5t117.5 -23.5t95.5 -65.5t65 -97.5t24 -116.5t-24 -116.5t-65 -96.5t-95 -64.5t-118 -23.5q-61 -1 -116 22q-55 25 -96 66t-65 95t-24 118z" />
<glyph unicode="&#x2026;" horiz-adv-x="1128" d="M86 76q0 41 23.5 69.5t58.5 28.5q37 0 59.5 -29.5t22.5 -68.5t-22.5 -69t-59.5 -30q-35 0 -58.5 29t-23.5 70zM483 76q0 41 23.5 69.5t58.5 28.5t57.5 -29.5t22.5 -68.5t-22.5 -69t-57.5 -30t-58.5 29t-23.5 70zM879 76q0 41 23.5 69.5t60.5 28.5q35 0 57 -29.5t22 -68.5 t-22 -69t-57 -30q-37 0 -60.5 29t-23.5 70z" />
<glyph unicode="&#x202f;" horiz-adv-x="361" />
<glyph unicode="&#x2039;" horiz-adv-x="589" d="M61 514l365 408l72 -62l-299 -340l331 -336l-69 -63z" />
<glyph unicode="&#x203a;" horiz-adv-x="589" d="M70 860l73 62l385 -400l-381 -401l-67 63l309 336z" />
<glyph unicode="&#x205f;" horiz-adv-x="451" />
<glyph unicode="&#x20ac;" d="M33 457v92h160q-2 25 -3.5 58.5t-1.5 62.5v60.5t2 60.5h-157v94h166q27 236 137 364.5t285 128.5q76 0 133 -17.5t100 -49t73.5 -75.5t55.5 -95l-96 -45q-39 80 -99.5 133t-164.5 53q-127 0 -209 -100.5t-101 -296.5h353v-94h-359q-2 -29 -2 -60v-61q0 -29 1 -62t3 -59 h357v-92h-349q29 -205 114 -293t204 -88q100 0 160.5 51t103.5 137l88 -51q-25 -49 -56.5 -92t-74.5 -75t-98.5 -50.5t-124.5 -18.5q-170 0 -283.5 115t-146.5 365h-170z" />
<glyph unicode="&#x2122;" horiz-adv-x="1175" d="M29 1290v76h458v-76h-188v-512h-82v512h-188zM551 778v588h100l185 -428l172 428h98v-588h-86v436l-154 -383l-37 -57l-192 436v-432h-86z" />
<glyph unicode="&#x25fc;" horiz-adv-x="972" d="M0 0v973h973v-973h-973z" />
</font>
</defs>
</svg>
